<?xml version="1.0" encoding="utf-8"?>
<svg viewBox="0 0 1200 630" width="1200" height="630" xmlns="http://www.w3.org/2000/svg">
  <defs>
    <radialGradient id="gradient-2" gradientUnits="userSpaceOnUse" cx="152.286" cy="126.898" r="330" gradientTransform="matrix(0.176546, -0.30191, 0.303419, 0.177428, 283.804535, 575.233398)">
      <stop offset="0" style="stop-color: rgb(0, 170, 237);"/>
      <stop offset="1" style="stop-color: rgb(0, 145, 202);"/>
    </radialGradient>
    <linearGradient id="gradient-3" gradientUnits="userSpaceOnUse" x1="330" y1="0" x2="330" y2="660" gradientTransform="matrix(0.271191, -0.054002, 0.054129, 0.271824, 253.003403, 534.382141)">
      <stop offset="0" style="stop-color: rgb(152, 226, 255);"/>
      <stop offset="1" style="stop-color: rgb(78, 193, 239);"/>
    </linearGradient>
  </defs>
  <path d="M 0 0 H 1200 V 630 H 0 V 0 Z" style="fill: rgb(12, 74, 110);"/>
  <path d="M 455.01 487.758 C 577.72 487.758 687.524 543.014 760.898 630 L 514.286 630 C 514.821 623.853 517.731 618.915 523.018 615.188 C 528.885 611.042 536.654 608.969 546.327 608.969 C 554.389 608.969 561.123 610.006 566.526 612.078 C 571.948 614.151 577.766 617.03 583.985 620.716 C 587.44 622.789 590.204 624.286 592.277 625.207 C 594.35 626.128 596.422 626.589 598.495 626.589 C 601.49 626.589 604.078 625.322 606.258 622.789 C 608.455 620.255 609.551 617.146 609.551 613.46 C 609.551 606.781 605.751 600.908 598.15 595.841 C 591.47 591.234 583.755 587.726 575.002 585.314 C 566.25 582.89 557.267 581.675 548.054 581.675 C 535.156 581.675 523.64 583.864 513.506 588.24 C 503.371 592.616 495.426 598.773 489.667 606.712 C 484.595 613.718 481.757 621.481 481.152 630 L 441.237 630 C 438.106 619.754 433.232 610.962 426.616 603.626 C 414.07 589.684 396.973 582.712 375.322 582.712 C 359.89 582.712 346.249 586.335 334.394 593.583 C 322.525 600.846 313.312 611.095 306.754 624.332 C 305.837 626.182 304.984 628.071 304.194 630 L 149.122 630 C 222.497 543.014 332.301 487.758 455.01 487.758 Z M 412.29 615.026 C 415.994 619.264 418.955 624.255 421.174 630 L 326.554 630 C 329.229 624.359 332.586 619.422 336.628 615.188 C 346.302 605.054 359.2 599.986 375.322 599.986 C 391.215 599.986 403.538 605.001 412.29 615.026 Z" style="fill: rgb(7, 89, 133);"/>
  <path d="M 1042.084 163.963 C 985.278 131.167 950.284 70.556 950.284 4.962 C 950.284 3.301 950.305 1.646 950.347 0 L 1004.386 0 C 1004.062 3.273 1003.899 6.646 1003.899 10.118 C 1003.899 32.053 1009.896 49.319 1021.869 61.878 C 1033.882 74.438 1050.288 80.726 1071.09 80.726 C 1086.11 80.726 1100.348 76.703 1113.864 68.636 C 1120.231 64.691 1123.434 60.668 1123.434 56.526 C 1123.434 54.651 1122.81 53.011 1121.598 51.605 C 1120.541 50.278 1118.938 49.503 1117.243 49.494 C 1115.544 49.494 1112.634 50.901 1108.513 53.714 L 1108.493 53.714 C 1102.905 56.99 1097.088 59.862 1091.09 62.308 C 1085.621 64.457 1078.882 65.53 1070.835 65.53 C 1055.445 65.53 1043.55 61.038 1035.091 52.054 C 1026.674 43.05 1022.162 29.924 1021.614 12.658 L 1115.27 12.658 C 1118.63 12.658 1121.07 11.877 1122.576 10.274 C 1124.079 8.673 1124.841 6.174 1124.841 2.814 C 1124.841 1.866 1124.829 0.928 1124.806 0 L 1159.725 0 C 1161.114 1.88 1162.749 3.612 1164.627 5.196 C 1171.829 11.269 1183.606 16.099 1200 19.65 L 1200 58.576 C 1194.713 58.201 1190.138 57.335 1186.27 55.98 C 1180.606 53.962 1175.108 51.514 1169.822 48.655 C 1164.569 45.667 1160.721 44.163 1158.299 44.163 C 1155.662 44.163 1153.514 45.198 1151.835 47.25 C 1150.107 49.403 1149.206 52.105 1149.295 54.866 C 1149.265 57.54 1149.994 60.17 1151.404 62.445 C 1153.267 65.118 1155.718 67.332 1158.572 68.91 C 1169.561 76.025 1183.361 79.916 1200 80.613 L 1200 176.29 C 1151.158 195.3 1093.881 193.869 1042.084 163.963 Z M 1109.079 0.001 L 1022.162 0.001 C 1022.162 0.001 1022.162 0 1022.162 0 L 1109.079 0 C 1109.079 0 1109.079 0.001 1109.079 0.001 Z" style="fill: rgb(7, 89, 133);"/>
  <path d="M 369.016 300.435 C 369.581 300.435 370.067 300.671 370.474 301.141 C 370.881 301.61 371.084 302.158 371.084 302.785 C 371.084 304.163 370.02 305.511 367.89 306.826 C 363.377 309.521 358.614 310.868 353.602 310.868 C 346.647 310.868 341.164 308.769 337.152 304.572 C 333.143 300.373 331.138 294.608 331.138 287.275 C 331.138 282.577 332.031 278.426 333.817 274.823 C 335.602 271.219 338.109 268.43 341.336 266.457 C 344.562 264.482 348.275 263.495 352.474 263.495 C 358.364 263.495 363.017 265.391 366.432 269.183 C 369.848 272.974 371.555 278.191 371.555 284.833 C 371.555 285.961 371.305 286.792 370.803 287.324 C 370.302 287.857 369.487 288.123 368.359 288.123 L 337.06 288.123 C 337.247 293.887 338.75 298.273 341.57 301.28 C 344.39 304.289 348.369 305.793 353.509 305.793 C 356.203 305.793 358.459 305.433 360.276 304.711 C 362.093 303.992 364.035 303.036 366.103 301.844 C 367.481 300.905 368.452 300.435 369.016 300.435 Z M 352.474 268.196 C 348.088 268.196 344.579 269.575 341.946 272.333 C 339.315 275.089 337.749 278.942 337.248 283.893 L 366.291 283.893 C 366.165 278.88 364.912 275.011 362.532 272.284 C 360.15 269.559 356.798 268.196 352.474 268.196 Z M 401.536 263.495 C 407.05 263.495 411.171 264.937 413.898 267.82 C 416.623 270.703 417.986 275.058 417.986 280.885 L 417.986 307.673 C 417.986 308.551 417.735 309.256 417.233 309.788 C 416.732 310.321 416.043 310.587 415.165 310.587 C 414.288 310.587 413.599 310.321 413.099 309.788 C 412.598 309.256 412.347 308.551 412.347 307.673 L 412.347 302.033 C 411.03 304.852 409.119 307.03 406.613 308.565 C 404.106 310.1 401.224 310.868 397.966 310.868 C 395.021 310.868 392.327 310.273 389.883 309.083 C 387.438 307.892 385.51 306.232 384.1 304.101 C 382.691 301.97 381.986 299.62 381.986 297.051 C 381.986 293.668 382.863 291.036 384.618 289.156 C 386.373 287.277 389.287 285.93 393.36 285.114 C 397.432 284.3 403.102 283.893 410.371 283.893 L 412.347 283.893 L 412.347 280.416 C 412.347 276.279 411.501 273.255 409.807 271.344 C 408.116 269.432 405.453 268.477 401.819 268.477 C 397.181 268.477 392.764 269.7 388.567 272.145 C 388.378 272.27 387.892 272.599 387.109 273.131 C 386.326 273.664 385.653 273.93 385.089 273.93 C 384.462 273.93 383.945 273.695 383.536 273.224 C 383.129 272.755 382.926 272.176 382.926 271.485 C 382.926 270.107 384.022 268.759 386.215 267.444 C 388.41 266.19 390.854 265.219 393.548 264.53 C 396.243 263.84 398.905 263.495 401.536 263.495 Z M 398.435 305.886 C 402.508 305.886 405.845 304.508 408.445 301.752 C 411.046 298.994 412.347 295.485 412.347 291.224 L 412.347 288.123 L 410.559 288.123 C 404.544 288.123 399.938 288.373 396.743 288.875 C 393.547 289.376 391.291 290.237 389.976 291.459 C 388.66 292.681 388.002 294.452 388.002 296.77 C 388.002 299.402 389.005 301.58 391.009 303.302 C 393.014 305.025 395.49 305.886 398.435 305.886 Z M 447.686 310.868 C 445.055 310.868 442.47 310.508 439.932 309.788 C 437.394 309.067 435.154 308.08 433.212 306.826 C 432.02 306.012 431.19 305.307 430.721 304.711 C 430.25 304.117 430.015 303.444 430.015 302.692 C 430.015 302.065 430.219 301.532 430.626 301.092 C 431.033 300.654 431.519 300.435 432.084 300.435 C 432.647 300.435 433.618 300.905 434.997 301.844 C 436.814 303.036 438.678 304.008 440.589 304.76 C 442.501 305.511 444.898 305.886 447.781 305.886 C 451.478 305.886 454.36 305.213 456.428 303.866 C 458.495 302.519 459.529 300.592 459.529 298.086 C 459.529 296.582 459.153 295.344 458.401 294.372 C 457.649 293.401 456.395 292.556 454.641 291.835 C 452.887 291.115 450.381 290.41 447.122 289.72 C 441.546 288.466 437.582 286.853 435.231 284.88 C 432.882 282.907 431.708 280.259 431.708 276.938 C 431.708 272.927 433.274 269.684 436.406 267.209 C 439.54 264.733 443.613 263.495 448.626 263.495 C 451.069 263.495 453.404 263.809 455.629 264.435 C 457.853 265.062 459.78 265.971 461.41 267.163 C 463.603 268.666 464.699 270.138 464.699 271.58 C 464.699 272.207 464.496 272.755 464.089 273.224 C 463.68 273.695 463.194 273.93 462.631 273.93 C 462.004 273.93 461.033 273.428 459.717 272.425 C 458.026 271.235 456.35 270.28 454.689 269.559 C 453.029 268.837 450.914 268.477 448.345 268.477 C 445.086 268.477 442.485 269.213 440.543 270.687 C 438.601 272.158 437.629 274.148 437.629 276.655 C 437.629 278.096 437.958 279.287 438.616 280.228 C 439.274 281.167 440.401 281.997 441.998 282.718 C 443.597 283.438 445.9 284.143 448.907 284.833 C 453.231 285.836 456.552 286.901 458.87 288.028 C 461.19 289.156 462.85 290.503 463.852 292.069 C 464.855 293.637 465.356 295.642 465.356 298.086 C 465.356 301.909 463.743 304.995 460.516 307.344 C 457.289 309.693 453.012 310.868 447.686 310.868 Z M 510.379 265.375 C 510.88 264.247 511.694 263.683 512.821 263.683 C 513.511 263.683 514.138 263.934 514.701 264.435 C 515.266 264.937 515.548 265.533 515.548 266.223 C 515.548 266.661 515.454 267.068 515.265 267.444 L 488.664 325.813 C 488.164 326.879 487.35 327.412 486.222 327.412 C 485.532 327.412 484.921 327.192 484.388 326.753 C 483.856 326.315 483.59 325.751 483.59 325.061 C 483.59 324.685 483.684 324.309 483.871 323.935 L 490.545 309.366 L 471.277 267.444 C 471.088 267.068 470.994 266.692 470.994 266.316 C 470.994 265.563 471.323 264.921 471.981 264.389 C 472.64 263.856 473.345 263.59 474.098 263.59 C 475.288 263.59 476.102 264.154 476.54 265.283 L 493.458 303.256 L 510.379 265.375 Z" style="fill: rgb(245, 245, 245); white-space: pre;"/>
  <path d="M 539.797 310.868 C 533.405 310.868 528.173 309.552 524.1 306.921 C 522.971 306.231 522.172 305.511 521.702 304.76 C 521.233 304.008 520.998 303.161 520.998 302.221 C 520.998 301.219 521.28 300.373 521.843 299.683 C 522.407 298.995 523.127 298.65 524.005 298.65 C 524.82 298.65 526.105 299.152 527.858 300.154 C 529.738 301.156 531.572 301.97 533.357 302.597 C 535.143 303.223 537.383 303.537 540.078 303.537 C 543.086 303.537 545.436 303.004 547.128 301.94 C 548.819 300.875 549.665 299.371 549.665 297.427 C 549.665 296.175 549.336 295.173 548.679 294.421 C 548.021 293.668 546.877 292.994 545.248 292.399 C 543.618 291.803 541.205 291.161 538.009 290.472 C 532.496 289.282 528.532 287.669 526.119 285.632 C 523.707 283.595 522.5 280.822 522.5 277.312 C 522.5 274.618 523.284 272.19 524.852 270.03 C 526.418 267.868 528.579 266.191 531.335 264.999 C 534.093 263.809 537.226 263.214 540.735 263.214 C 543.242 263.214 545.686 263.543 548.068 264.201 C 550.448 264.858 552.547 265.814 554.366 267.068 C 556.434 268.447 557.467 270.045 557.467 271.861 C 557.467 272.864 557.17 273.71 556.574 274.399 C 555.978 275.089 555.273 275.434 554.459 275.434 C 553.896 275.434 553.331 275.309 552.766 275.058 C 552.203 274.807 551.451 274.399 550.51 273.835 C 548.819 272.833 547.237 272.05 545.765 271.485 C 544.292 270.922 542.459 270.64 540.266 270.64 C 537.633 270.64 535.519 271.204 533.921 272.333 C 532.323 273.459 531.524 274.994 531.524 276.938 C 531.524 278.692 532.26 280.054 533.733 281.026 C 535.207 281.997 537.979 282.92 542.051 283.798 C 546.25 284.676 549.54 285.678 551.921 286.806 C 554.302 287.935 556.009 289.329 557.045 290.99 C 558.079 292.65 558.595 294.765 558.595 297.334 C 558.595 301.407 556.888 304.681 553.472 307.156 C 550.057 309.63 545.498 310.868 539.797 310.868 Z M 588.766 310.868 C 584.316 310.868 580.416 309.897 577.064 307.954 C 573.71 306.012 571.109 303.255 569.261 299.683 C 567.414 296.111 566.49 291.976 566.49 287.275 C 566.49 282.513 567.445 278.316 569.357 274.682 C 571.266 271.047 573.944 268.227 577.391 266.223 C 580.837 264.217 584.785 263.214 589.235 263.214 C 591.616 263.214 594.013 263.559 596.426 264.247 C 598.839 264.937 600.985 265.878 602.863 267.068 C 604.869 268.447 605.872 270.045 605.872 271.861 C 605.872 272.926 605.589 273.819 605.025 274.54 C 604.461 275.261 603.741 275.622 602.863 275.622 C 602.3 275.622 601.736 275.48 601.171 275.197 C 600.608 274.916 599.888 274.493 599.01 273.93 C 597.444 272.927 595.987 272.159 594.639 271.627 C 593.292 271.094 591.679 270.828 589.799 270.828 C 585.538 270.828 582.233 272.269 579.882 275.151 C 577.533 278.034 576.358 282.044 576.358 287.183 C 576.358 292.321 577.517 296.284 579.835 299.073 C 582.154 301.862 585.444 303.256 589.706 303.256 C 591.585 303.256 593.245 302.973 594.688 302.409 C 596.128 301.845 597.601 301.094 599.105 300.154 C 599.794 299.715 600.483 299.339 601.171 299.026 C 601.861 298.712 602.488 298.555 603.052 298.555 C 603.929 298.555 604.649 298.916 605.213 299.637 C 605.778 300.358 606.06 301.251 606.06 302.316 C 606.06 303.193 605.825 303.992 605.354 304.711 C 604.885 305.433 604.087 306.169 602.959 306.921 C 601.078 308.175 598.885 309.146 596.378 309.835 C 593.872 310.523 591.335 310.868 588.766 310.868 Z M 619.311 310.68 C 617.933 310.68 616.789 310.304 615.88 309.554 C 614.971 308.802 614.517 307.673 614.517 306.169 L 614.517 268.008 C 614.517 266.504 614.971 265.36 615.88 264.577 C 616.789 263.794 617.933 263.402 619.311 263.402 C 620.689 263.402 621.818 263.794 622.695 264.577 C 623.572 265.36 624.011 266.504 624.011 268.008 L 624.011 306.169 C 624.011 307.673 623.572 308.802 622.695 309.554 C 621.818 310.304 620.689 310.68 619.311 310.68 Z M 619.311 254.191 C 617.494 254.191 616.053 253.69 614.988 252.687 C 613.922 251.684 613.389 250.368 613.389 248.74 C 613.389 247.111 613.922 245.81 614.988 244.838 C 616.053 243.868 617.494 243.383 619.311 243.383 C 621.065 243.383 622.492 243.868 623.589 244.838 C 624.685 245.81 625.232 247.111 625.232 248.74 C 625.232 250.368 624.7 251.684 623.635 252.687 C 622.569 253.69 621.127 254.191 619.311 254.191 Z M 673.167 298.65 C 674.045 298.65 674.766 298.995 675.331 299.683 C 675.894 300.373 676.176 301.251 676.176 302.316 C 676.176 304.132 675.049 305.668 672.793 306.921 C 670.599 308.175 668.202 309.146 665.602 309.835 C 663.002 310.523 660.511 310.868 658.129 310.868 C 650.86 310.868 645.126 308.753 640.928 304.523 C 636.731 300.294 634.632 294.514 634.632 287.183 C 634.632 282.482 635.556 278.316 637.404 274.682 C 639.252 271.047 641.853 268.227 645.206 266.223 C 648.558 264.217 652.365 263.214 656.625 263.214 C 662.766 263.214 667.622 265.188 671.194 269.136 C 674.766 273.084 676.552 278.41 676.552 285.114 C 676.552 287.621 675.424 288.875 673.167 288.875 L 644.124 288.875 C 644.751 298.588 649.42 303.444 658.129 303.444 C 660.448 303.444 662.453 303.13 664.144 302.504 C 665.837 301.877 667.623 301.062 669.502 300.059 C 669.691 299.934 670.208 299.668 671.053 299.261 C 671.899 298.854 672.604 298.65 673.167 298.65 Z M 656.813 270.169 C 653.179 270.169 650.266 271.328 648.073 273.647 C 645.879 275.966 644.562 279.225 644.124 283.422 L 668.374 283.422 C 668.187 279.161 667.106 275.887 665.133 273.6 C 663.158 271.313 660.385 270.169 656.813 270.169 Z M 711.704 263.214 C 722.67 263.214 728.153 269.387 728.153 281.732 L 728.153 306.169 C 728.153 307.61 727.73 308.722 726.883 309.505 C 726.038 310.288 724.863 310.68 723.359 310.68 C 721.918 310.68 720.775 310.273 719.928 309.459 C 719.082 308.645 718.658 307.548 718.658 306.169 L 718.658 282.201 C 718.658 278.316 717.891 275.465 716.356 273.647 C 714.82 271.83 712.424 270.921 709.166 270.921 C 705.344 270.921 702.273 272.112 699.955 274.494 C 697.637 276.874 696.478 280.07 696.478 284.081 L 696.478 306.169 C 696.478 307.548 696.054 308.645 695.208 309.459 C 694.363 310.273 693.219 310.68 691.777 310.68 C 690.336 310.68 689.177 310.273 688.299 309.459 C 687.422 308.645 686.983 307.548 686.983 306.169 L 686.983 267.913 C 686.983 266.597 687.437 265.517 688.346 264.672 C 689.256 263.825 690.4 263.402 691.777 263.402 C 693.156 263.402 694.252 263.809 695.066 264.623 C 695.882 265.439 696.29 266.504 696.29 267.82 L 696.29 271.673 C 697.794 268.917 699.893 266.818 702.587 265.375 C 705.282 263.935 708.321 263.214 711.704 263.214 Z M 760.767 310.868 C 756.318 310.868 752.417 309.897 749.065 307.954 C 745.712 306.012 743.111 303.255 741.263 299.683 C 739.415 296.111 738.491 291.976 738.491 287.275 C 738.491 282.513 739.447 278.316 741.358 274.682 C 743.268 271.047 745.946 268.227 749.393 266.223 C 752.839 264.217 756.787 263.214 761.236 263.214 C 763.618 263.214 766.015 263.559 768.428 264.247 C 770.841 264.937 772.986 265.878 774.865 267.068 C 776.871 268.447 777.874 270.045 777.874 271.861 C 777.874 272.926 777.591 273.819 777.026 274.54 C 776.463 275.261 775.743 275.622 774.865 275.622 C 774.302 275.622 773.738 275.48 773.173 275.197 C 772.609 274.916 771.889 274.493 771.012 273.93 C 769.445 272.927 767.988 272.159 766.64 271.627 C 765.294 271.094 763.681 270.828 761.8 270.828 C 757.54 270.828 754.234 272.269 751.883 275.151 C 749.534 278.034 748.359 282.044 748.359 287.183 C 748.359 292.321 749.519 296.284 751.837 299.073 C 754.155 301.862 757.445 303.256 761.707 303.256 C 763.586 303.256 765.247 302.973 766.689 302.409 C 768.13 301.845 769.602 301.094 771.107 300.154 C 771.795 299.715 772.484 299.339 773.173 299.026 C 773.863 298.712 774.49 298.555 775.053 298.555 C 775.931 298.555 776.651 298.916 777.214 299.637 C 777.779 300.358 778.062 301.251 778.062 302.316 C 778.062 303.193 777.826 303.992 777.356 304.711 C 776.887 305.433 776.088 306.169 774.96 306.921 C 773.08 308.175 770.886 309.146 768.379 309.835 C 765.874 310.523 763.336 310.868 760.767 310.868 Z M 822.423 298.65 C 823.301 298.65 824.022 298.995 824.587 299.683 C 825.15 300.373 825.432 301.251 825.432 302.316 C 825.432 304.132 824.304 305.668 822.05 306.921 C 819.855 308.175 817.458 309.146 814.858 309.835 C 812.258 310.523 809.767 310.868 807.385 310.868 C 800.116 310.868 794.383 308.753 790.184 304.523 C 785.987 300.294 783.888 294.514 783.888 287.183 C 783.888 282.482 784.812 278.316 786.66 274.682 C 788.508 271.047 791.109 268.227 794.462 266.223 C 797.814 264.217 801.621 263.214 805.881 263.214 C 812.022 263.214 816.878 265.188 820.45 269.136 C 824.022 273.084 825.808 278.41 825.808 285.114 C 825.808 287.621 824.68 288.875 822.423 288.875 L 793.381 288.875 C 794.007 298.588 798.676 303.444 807.385 303.444 C 809.704 303.444 811.709 303.13 813.4 302.504 C 815.093 301.877 816.879 301.062 818.758 300.059 C 818.947 299.934 819.464 299.668 820.309 299.261 C 821.155 298.854 821.86 298.65 822.423 298.65 Z M 806.069 270.169 C 802.435 270.169 799.522 271.328 797.329 273.647 C 795.135 275.966 793.819 279.225 793.381 283.422 L 817.63 283.422 C 817.442 279.161 816.362 275.887 814.389 273.6 C 812.414 271.313 809.641 270.169 806.069 270.169 Z" style="fill: rgb(245, 245, 245); white-space: pre;"/>
  <path d="M 356.851 351.009 C 357.257 351.009 357.572 351.132 357.796 351.378 C 358.02 351.623 358.132 351.948 358.132 352.354 L 358.132 372.617 C 358.132 373 358.025 373.309 357.811 373.544 C 357.599 373.778 357.3 373.895 356.916 373.895 C 356.532 373.895 356.244 373.778 356.051 373.544 C 355.859 373.309 355.763 373 355.763 372.617 L 355.763 356.258 L 348.817 369.575 C 348.519 370.195 348.082 370.504 347.505 370.504 C 346.951 370.504 346.514 370.195 346.193 369.575 L 339.214 356.42 L 339.214 372.617 C 339.214 373 339.113 373.309 338.911 373.544 C 338.708 373.778 338.414 373.895 338.031 373.895 C 337.646 373.895 337.347 373.778 337.135 373.544 C 336.921 373.309 336.814 373 336.814 372.617 L 336.814 352.354 C 336.814 351.948 336.931 351.623 337.166 351.378 C 337.4 351.132 337.72 351.009 338.126 351.009 C 338.66 351.009 339.087 351.319 339.407 351.938 L 347.536 367.527 L 355.571 351.938 C 355.742 351.596 355.929 351.355 356.132 351.217 C 356.334 351.078 356.574 351.009 356.851 351.009 Z M 369.716 357.762 C 373.621 357.762 375.574 359.812 375.574 363.91 L 375.574 372.617 C 375.574 373 375.462 373.309 375.238 373.544 C 375.014 373.778 374.709 373.895 374.324 373.895 C 373.941 373.895 373.632 373.778 373.397 373.544 C 373.163 373.309 373.045 373 373.045 372.617 L 373.045 371.079 C 372.64 371.997 372.021 372.706 371.187 373.207 C 370.356 373.709 369.395 373.96 368.307 373.96 C 367.304 373.96 366.381 373.757 365.538 373.351 C 364.695 372.946 364.029 372.38 363.538 371.655 C 363.047 370.929 362.801 370.129 362.801 369.254 C 362.801 368.08 363.1 367.168 363.697 366.518 C 364.296 365.868 365.278 365.398 366.644 365.109 C 368.009 364.821 369.908 364.678 372.34 364.678 L 373.045 364.678 L 373.045 363.62 C 373.045 362.34 372.784 361.401 372.26 360.804 C 371.738 360.207 370.89 359.908 369.716 359.908 C 368.265 359.908 366.792 360.303 365.299 361.092 C 364.722 361.454 364.316 361.636 364.082 361.636 C 363.825 361.636 363.612 361.54 363.443 361.348 C 363.272 361.157 363.186 360.911 363.186 360.612 C 363.186 360.314 363.277 360.053 363.458 359.829 C 363.64 359.604 363.933 359.375 364.339 359.141 C 365.085 358.713 365.933 358.377 366.882 358.132 C 367.832 357.886 368.777 357.762 369.716 357.762 Z M 368.659 371.911 C 369.939 371.911 370.99 371.479 371.813 370.615 C 372.635 369.751 373.045 368.636 373.045 367.27 L 373.045 366.341 L 372.468 366.341 C 370.591 366.341 369.161 366.421 368.179 366.582 C 367.198 366.741 366.499 367.008 366.082 367.383 C 365.666 367.756 365.458 368.305 365.458 369.031 C 365.458 369.863 365.763 370.551 366.371 371.095 C 366.979 371.639 367.741 371.911 368.659 371.911 Z M 392.76 371.688 C 393.102 372.008 393.273 372.349 393.273 372.712 C 393.273 373.032 393.161 373.309 392.937 373.544 C 392.713 373.778 392.441 373.895 392.121 373.895 C 391.843 373.895 391.555 373.768 391.256 373.513 L 382.901 366.31 L 382.901 372.617 C 382.901 373.021 382.778 373.335 382.533 373.559 C 382.289 373.783 381.985 373.895 381.622 373.895 C 381.237 373.895 380.922 373.783 380.677 373.559 C 380.431 373.335 380.308 373.021 380.308 372.617 L 380.308 352.29 C 380.308 351.884 380.431 351.569 380.677 351.345 C 380.922 351.121 381.237 351.009 381.622 351.009 C 381.985 351.009 382.289 351.121 382.533 351.345 C 382.778 351.569 382.901 351.884 382.901 352.29 L 382.901 365.286 L 390.552 358.276 C 390.807 358.019 391.095 357.891 391.415 357.891 C 391.735 357.891 392.013 358.009 392.249 358.245 C 392.484 358.479 392.601 358.756 392.601 359.076 C 392.601 359.439 392.451 359.759 392.152 360.037 L 385.847 365.671 L 392.76 371.688 Z M 397.625 373.895 C 397.24 373.895 396.925 373.783 396.68 373.559 C 396.434 373.335 396.311 373.021 396.311 372.617 L 396.311 359.107 C 396.311 358.702 396.434 358.387 396.68 358.163 C 396.925 357.939 397.24 357.827 397.625 357.827 C 398.008 357.827 398.317 357.939 398.551 358.163 C 398.786 358.387 398.903 358.702 398.903 359.107 L 398.903 372.617 C 398.903 373.043 398.786 373.363 398.551 373.577 C 398.317 373.789 398.008 373.895 397.625 373.895 Z M 397.625 354.466 C 397.111 354.466 396.695 354.317 396.375 354.017 C 396.055 353.719 395.895 353.325 395.895 352.834 C 395.895 352.365 396.055 351.981 396.375 351.681 C 396.695 351.383 397.111 351.234 397.625 351.234 C 398.136 351.234 398.552 351.383 398.872 351.681 C 399.192 351.981 399.352 352.365 399.352 352.834 C 399.352 353.325 399.192 353.719 398.872 354.017 C 398.552 354.317 398.136 354.466 397.625 354.466 Z M 411.577 357.762 C 415.313 357.762 417.181 359.822 417.181 363.941 L 417.181 372.617 C 417.181 373.021 417.069 373.335 416.845 373.559 C 416.62 373.783 416.306 373.895 415.9 373.895 C 415.494 373.895 415.174 373.783 414.94 373.559 C 414.705 373.335 414.588 373.021 414.588 372.617 L 414.588 364.102 C 414.588 362.651 414.305 361.595 413.739 360.932 C 413.174 360.27 412.272 359.939 411.033 359.939 C 409.604 359.939 408.463 360.377 407.609 361.253 C 406.755 362.128 406.328 363.312 406.328 364.806 L 406.328 372.617 C 406.328 373.021 406.216 373.335 405.992 373.559 C 405.768 373.783 405.454 373.895 405.05 373.895 C 404.644 373.895 404.323 373.783 404.087 373.559 C 403.853 373.335 403.736 373.021 403.736 372.617 L 403.736 359.107 C 403.736 358.724 403.853 358.415 404.087 358.181 C 404.323 357.945 404.644 357.827 405.05 357.827 C 405.433 357.827 405.737 357.945 405.961 358.181 C 406.185 358.415 406.297 358.714 406.297 359.076 L 406.297 360.709 C 406.809 359.749 407.524 359.018 408.441 358.517 C 409.36 358.014 410.405 357.762 411.577 357.762 Z M 434.559 357.827 C 434.964 357.827 435.285 357.945 435.519 358.181 C 435.754 358.415 435.871 358.724 435.871 359.107 L 435.871 372.679 C 435.871 375.006 435.274 376.762 434.079 377.946 C 432.884 379.13 431.113 379.722 428.765 379.722 C 426.483 379.722 424.583 379.274 423.067 378.377 C 422.299 377.951 421.915 377.461 421.915 376.906 C 421.915 376.607 421.995 376.361 422.156 376.169 C 422.315 375.976 422.523 375.88 422.779 375.88 C 422.993 375.88 423.377 376.029 423.932 376.329 C 424.678 376.714 425.414 377.023 426.14 377.258 C 426.865 377.492 427.729 377.61 428.732 377.61 C 430.248 377.61 431.39 377.209 432.159 376.408 C 432.927 375.609 433.311 374.441 433.311 372.904 L 433.311 370.15 C 432.863 371.153 432.174 371.922 431.245 372.455 C 430.317 372.989 429.224 373.256 427.965 373.256 C 426.599 373.256 425.388 372.936 424.332 372.296 C 423.275 371.656 422.453 370.749 421.868 369.575 C 421.281 368.401 420.988 367.046 420.988 365.509 C 420.988 363.973 421.281 362.618 421.868 361.446 C 422.453 360.272 423.275 359.365 424.332 358.725 C 425.388 358.083 426.599 357.762 427.965 357.762 C 429.202 357.762 430.28 358.029 431.199 358.563 C 432.116 359.097 432.809 359.855 433.278 360.837 L 433.278 359.107 C 433.278 358.724 433.39 358.415 433.614 358.181 C 433.839 357.945 434.153 357.827 434.559 357.827 Z M 428.478 371.11 C 429.97 371.11 431.143 370.615 431.997 369.624 C 432.851 368.631 433.278 367.26 433.278 365.509 C 433.278 363.781 432.857 362.421 432.015 361.428 C 431.171 360.435 429.992 359.939 428.478 359.939 C 426.962 359.939 425.772 360.435 424.908 361.428 C 424.043 362.421 423.611 363.781 423.611 365.509 C 423.611 367.26 424.043 368.631 424.908 369.624 C 425.772 370.615 426.962 371.11 428.478 371.11 Z M 454.176 373.96 C 453.195 373.96 452.262 373.842 451.376 373.608 C 450.491 373.373 449.707 373.043 449.024 372.617 C 448.639 372.36 448.367 372.12 448.208 371.896 C 448.047 371.672 447.967 371.4 447.967 371.079 C 447.967 370.802 448.047 370.573 448.208 370.391 C 448.367 370.21 448.575 370.119 448.832 370.119 C 449.087 370.119 449.46 370.279 449.951 370.599 C 450.591 370.983 451.226 371.287 451.856 371.511 C 452.485 371.735 453.27 371.847 454.209 371.847 C 455.361 371.847 456.257 371.644 456.897 371.239 C 457.537 370.833 457.857 370.246 457.857 369.478 C 457.857 369.009 457.74 368.631 457.505 368.343 C 457.271 368.054 456.865 367.798 456.289 367.575 C 455.713 367.351 454.871 367.121 453.76 366.885 C 451.883 366.48 450.539 365.936 449.727 365.253 C 448.916 364.57 448.511 363.642 448.511 362.47 C 448.511 361.551 448.767 360.74 449.278 360.037 C 449.792 359.332 450.502 358.776 451.409 358.371 C 452.316 357.965 453.345 357.762 454.497 357.762 C 455.329 357.762 456.134 357.875 456.915 358.099 C 457.693 358.323 458.381 358.638 458.979 359.043 C 459.704 359.556 460.067 360.09 460.067 360.645 C 460.067 360.922 459.981 361.157 459.81 361.348 C 459.639 361.54 459.436 361.636 459.202 361.636 C 458.945 361.636 458.561 361.454 458.049 361.092 C 457.452 360.708 456.887 360.41 456.353 360.196 C 455.82 359.982 455.159 359.875 454.369 359.875 C 453.366 359.875 452.561 360.099 451.953 360.548 C 451.344 360.996 451.039 361.594 451.039 362.342 C 451.039 362.811 451.151 363.189 451.376 363.476 C 451.6 363.765 451.973 364.022 452.497 364.246 C 453.019 364.47 453.771 364.689 454.753 364.901 C 456.205 365.221 457.33 365.573 458.129 365.958 C 458.93 366.342 459.501 366.811 459.844 367.365 C 460.184 367.921 460.355 368.626 460.355 369.478 C 460.355 370.823 459.789 371.906 458.658 372.727 C 457.527 373.549 456.033 373.96 454.176 373.96 Z M 470.724 373.96 C 469.273 373.96 467.987 373.629 466.866 372.969 C 465.745 372.306 464.881 371.367 464.274 370.15 C 463.666 368.935 463.362 367.527 463.362 365.925 C 463.362 364.325 463.676 362.906 464.304 361.669 C 464.934 360.432 465.815 359.472 466.946 358.789 C 468.077 358.105 469.379 357.762 470.852 357.762 C 471.662 357.762 472.467 357.875 473.268 358.099 C 474.069 358.323 474.768 358.649 475.365 359.076 C 475.749 359.332 476.021 359.582 476.181 359.829 C 476.341 360.073 476.42 360.346 476.42 360.645 C 476.42 360.943 476.341 361.188 476.181 361.381 C 476.021 361.573 475.813 361.669 475.558 361.669 C 475.407 361.669 475.247 361.626 475.078 361.541 C 474.907 361.455 474.762 361.37 474.644 361.284 C 474.528 361.199 474.448 361.145 474.405 361.125 C 473.851 360.762 473.323 360.474 472.821 360.26 C 472.318 360.046 471.704 359.939 470.978 359.939 C 469.421 359.939 468.21 360.468 467.346 361.525 C 466.482 362.581 466.05 364.048 466.05 365.925 C 466.05 367.804 466.482 369.255 467.346 370.279 C 468.21 371.303 469.421 371.816 470.978 371.816 C 471.704 371.816 472.329 371.709 472.852 371.495 C 473.374 371.281 473.902 370.993 474.436 370.63 C 474.67 370.481 474.895 370.354 475.108 370.248 C 475.322 370.14 475.504 370.086 475.653 370.086 C 475.887 370.086 476.085 370.183 476.246 370.376 C 476.405 370.568 476.484 370.812 476.484 371.11 C 476.484 371.389 476.41 371.641 476.261 371.865 C 476.112 372.087 475.835 372.338 475.429 372.617 C 474.832 373.021 474.112 373.346 473.268 373.592 C 472.426 373.837 471.578 373.96 470.724 373.96 Z M 480.933 373.895 C 480.549 373.895 480.234 373.783 479.989 373.559 C 479.743 373.335 479.619 373.021 479.619 372.617 L 479.619 359.107 C 479.619 358.702 479.743 358.387 479.989 358.163 C 480.234 357.939 480.549 357.827 480.933 357.827 C 481.317 357.827 481.626 357.939 481.86 358.163 C 482.095 358.387 482.212 358.702 482.212 359.107 L 482.212 372.617 C 482.212 373.043 482.095 373.363 481.86 373.577 C 481.626 373.789 481.317 373.895 480.933 373.895 Z M 480.933 354.466 C 480.42 354.466 480.004 354.317 479.684 354.017 C 479.363 353.719 479.204 353.325 479.204 352.834 C 479.204 352.365 479.363 351.981 479.684 351.681 C 480.004 351.383 480.42 351.234 480.933 351.234 C 481.445 351.234 481.861 351.383 482.181 351.681 C 482.501 351.981 482.661 352.365 482.661 352.834 C 482.661 353.325 482.501 353.719 482.181 354.017 C 481.861 354.317 481.445 354.466 480.933 354.466 Z M 499.112 370.119 C 499.348 370.119 499.55 370.215 499.72 370.407 C 499.891 370.599 499.977 370.844 499.977 371.144 C 499.977 371.677 499.604 372.168 498.857 372.617 C 498.089 373.064 497.278 373.399 496.424 373.623 C 495.57 373.847 494.738 373.96 493.927 373.96 C 491.515 373.96 489.611 373.245 488.213 371.816 C 486.816 370.385 486.118 368.412 486.118 365.894 C 486.118 364.294 486.427 362.881 487.045 361.654 C 487.664 360.427 488.534 359.472 489.655 358.789 C 490.774 358.105 492.049 357.762 493.48 357.762 C 495.506 357.762 497.117 358.425 498.313 359.749 C 499.508 361.072 500.105 362.864 500.105 365.127 C 500.105 365.553 500.019 365.862 499.848 366.053 C 499.677 366.245 499.4 366.341 499.017 366.341 L 488.71 366.341 C 488.902 370.012 490.641 371.847 493.927 371.847 C 494.76 371.847 495.475 371.735 496.072 371.511 C 496.67 371.287 497.31 370.983 497.992 370.599 C 498.547 370.279 498.92 370.119 499.112 370.119 Z M 493.511 359.78 C 492.145 359.78 491.051 360.207 490.23 361.061 C 489.409 361.915 488.923 363.12 488.775 364.678 L 497.833 364.678 C 497.79 363.098 497.395 361.887 496.647 361.045 C 495.901 360.202 494.856 359.78 493.511 359.78 Z M 511.753 357.762 C 515.489 357.762 517.356 359.822 517.356 363.941 L 517.356 372.617 C 517.356 373.021 517.244 373.335 517.02 373.559 C 516.796 373.783 516.481 373.895 516.076 373.895 C 515.67 373.895 515.35 373.783 515.116 373.559 C 514.881 373.335 514.764 373.021 514.764 372.617 L 514.764 364.102 C 514.764 362.651 514.481 361.595 513.914 360.932 C 513.35 360.27 512.448 359.939 511.209 359.939 C 509.78 359.939 508.638 360.377 507.785 361.253 C 506.931 362.128 506.504 363.312 506.504 364.806 L 506.504 372.617 C 506.504 373.021 506.392 373.335 506.168 373.559 C 505.943 373.783 505.629 373.895 505.225 373.895 C 504.82 373.895 504.499 373.783 504.263 373.559 C 504.028 373.335 503.911 373.021 503.911 372.617 L 503.911 359.107 C 503.911 358.724 504.028 358.415 504.263 358.181 C 504.499 357.945 504.82 357.827 505.225 357.827 C 505.609 357.827 505.912 357.945 506.137 358.181 C 506.361 358.415 506.473 358.714 506.473 359.076 L 506.473 360.709 C 506.985 359.749 507.699 359.018 508.616 358.517 C 509.535 358.014 510.581 357.762 511.753 357.762 Z M 529.293 371.847 C 530.039 371.912 530.412 372.253 530.412 372.871 C 530.412 373.234 530.279 373.506 530.014 373.688 C 529.747 373.869 529.347 373.938 528.813 373.895 L 527.948 373.831 C 526.241 373.705 524.983 373.193 524.172 372.296 C 523.361 371.4 522.955 370.044 522.955 368.23 L 522.955 360.196 L 520.809 360.196 C 520.447 360.196 520.164 360.105 519.962 359.924 C 519.76 359.742 519.659 359.503 519.659 359.205 C 519.659 358.885 519.76 358.628 519.962 358.435 C 520.164 358.243 520.447 358.147 520.809 358.147 L 522.955 358.147 L 522.955 354.531 C 522.955 354.125 523.072 353.81 523.307 353.586 C 523.541 353.362 523.861 353.25 524.267 353.25 C 524.652 353.25 524.961 353.362 525.196 353.586 C 525.43 353.81 525.548 354.125 525.548 354.531 L 525.548 358.147 L 529.1 358.147 C 529.442 358.147 529.714 358.243 529.917 358.435 C 530.12 358.628 530.222 358.885 530.222 359.205 C 530.222 359.503 530.12 359.742 529.917 359.924 C 529.714 360.105 529.442 360.196 529.1 360.196 L 525.548 360.196 L 525.548 368.359 C 525.548 369.532 525.788 370.38 526.269 370.902 C 526.748 371.426 527.468 371.719 528.428 371.783 L 529.293 371.847 Z M 534.286 373.895 C 533.901 373.895 533.586 373.783 533.341 373.559 C 533.095 373.335 532.972 373.021 532.972 372.617 L 532.972 359.107 C 532.972 358.702 533.095 358.387 533.341 358.163 C 533.586 357.939 533.901 357.827 534.286 357.827 C 534.669 357.827 534.978 357.939 535.213 358.163 C 535.447 358.387 535.564 358.702 535.564 359.107 L 535.564 372.617 C 535.564 373.043 535.447 373.363 535.213 373.577 C 534.978 373.789 534.669 373.895 534.286 373.895 Z M 534.286 354.466 C 533.773 354.466 533.356 354.317 533.036 354.017 C 532.716 353.719 532.556 353.325 532.556 352.834 C 532.556 352.365 532.716 351.981 533.036 351.681 C 533.356 351.383 533.773 351.234 534.286 351.234 C 534.797 351.234 535.213 351.383 535.533 351.681 C 535.853 351.981 536.013 352.365 536.013 352.834 C 536.013 353.325 535.853 353.719 535.533 354.017 C 535.213 354.317 534.797 354.466 534.286 354.466 Z M 547.279 353.219 C 546.148 353.304 545.295 353.661 544.719 354.289 C 544.143 354.919 543.855 355.864 543.855 357.123 L 543.855 358.147 L 547.407 358.147 C 547.77 358.147 548.047 358.243 548.239 358.435 C 548.432 358.628 548.529 358.885 548.529 359.205 C 548.529 359.525 548.432 359.77 548.239 359.939 C 548.047 360.11 547.77 360.196 547.407 360.196 L 543.855 360.196 L 543.855 372.617 C 543.855 373.021 543.732 373.335 543.487 373.559 C 543.241 373.783 542.937 373.895 542.574 373.895 C 542.19 373.895 541.875 373.783 541.629 373.559 C 541.384 373.335 541.262 373.021 541.262 372.617 L 541.262 360.196 L 539.116 360.196 C 538.753 360.196 538.471 360.105 538.269 359.924 C 538.067 359.742 537.966 359.503 537.966 359.205 C 537.966 358.885 538.067 358.628 538.269 358.435 C 538.471 358.243 538.753 358.147 539.116 358.147 L 541.262 358.147 L 541.262 357.572 C 541.262 355.651 541.742 354.141 542.702 353.042 C 543.662 351.943 545.039 351.33 546.832 351.201 L 547.664 351.137 C 548.218 351.094 548.619 351.148 548.865 351.299 C 549.11 351.448 549.232 351.714 549.232 352.097 C 549.232 352.717 548.859 353.069 548.113 353.155 L 547.279 353.219 Z M 550.656 373.895 C 550.271 373.895 549.957 373.783 549.712 373.559 C 549.466 373.335 549.342 373.021 549.342 372.617 L 549.342 359.107 C 549.342 358.702 549.466 358.387 549.712 358.163 C 549.957 357.939 550.271 357.827 550.656 357.827 C 551.04 357.827 551.349 357.939 551.583 358.163 C 551.818 358.387 551.935 358.702 551.935 359.107 L 551.935 372.617 C 551.935 373.043 551.818 373.363 551.583 373.577 C 551.349 373.789 551.04 373.895 550.656 373.895 Z M 550.656 354.466 C 550.143 354.466 549.727 354.317 549.407 354.017 C 549.086 353.719 548.926 353.325 548.926 352.834 C 548.926 352.365 549.086 351.981 549.407 351.681 C 549.727 351.383 550.143 351.234 550.656 351.234 C 551.168 351.234 551.584 351.383 551.904 351.681 C 552.224 351.981 552.384 352.365 552.384 352.834 C 552.384 353.325 552.224 353.719 551.904 354.017 C 551.584 354.317 551.168 354.466 550.656 354.466 Z M 564.723 373.96 C 563.272 373.96 561.986 373.629 560.865 372.969 C 559.744 372.306 558.88 371.367 558.272 370.15 C 557.665 368.935 557.361 367.527 557.361 365.925 C 557.361 364.325 557.675 362.906 558.303 361.669 C 558.933 360.432 559.813 359.472 560.944 358.789 C 562.076 358.105 563.378 357.762 564.851 357.762 C 565.661 357.762 566.466 357.875 567.267 358.099 C 568.068 358.323 568.767 358.649 569.364 359.076 C 569.747 359.332 570.019 359.582 570.18 359.829 C 570.339 360.073 570.419 360.346 570.419 360.645 C 570.419 360.943 570.339 361.188 570.18 361.381 C 570.019 361.573 569.812 361.669 569.556 361.669 C 569.406 361.669 569.246 361.626 569.076 361.541 C 568.905 361.455 568.761 361.37 568.643 361.284 C 568.526 361.199 568.447 361.145 568.404 361.125 C 567.849 360.762 567.321 360.474 566.82 360.26 C 566.317 360.046 565.703 359.939 564.977 359.939 C 563.42 359.939 562.209 360.468 561.345 361.525 C 560.481 362.581 560.049 364.048 560.049 365.925 C 560.049 367.804 560.481 369.255 561.345 370.279 C 562.209 371.303 563.42 371.816 564.977 371.816 C 565.703 371.816 566.327 371.709 566.851 371.495 C 567.373 371.281 567.901 370.993 568.435 370.63 C 568.669 370.481 568.894 370.354 569.107 370.248 C 569.321 370.14 569.503 370.086 569.651 370.086 C 569.886 370.086 570.084 370.183 570.244 370.376 C 570.404 370.568 570.483 370.812 570.483 371.11 C 570.483 371.389 570.409 371.641 570.26 371.865 C 570.111 372.087 569.834 372.338 569.428 372.617 C 568.831 373.021 568.11 373.346 567.267 373.592 C 566.425 373.837 565.577 373.96 564.723 373.96 Z M 594.392 351.009 C 594.797 351.009 595.117 351.126 595.352 351.361 C 595.586 351.597 595.703 351.896 595.703 352.259 L 595.703 372.617 C 595.703 373 595.586 373.309 595.352 373.544 C 595.117 373.778 594.797 373.895 594.392 373.895 C 593.986 373.895 593.671 373.778 593.447 373.544 C 593.223 373.309 593.111 373 593.111 372.617 L 593.111 370.887 C 592.642 371.869 591.954 372.627 591.047 373.161 C 590.14 373.693 589.078 373.96 587.861 373.96 C 586.496 373.96 585.29 373.618 584.245 372.935 C 583.199 372.252 582.388 371.298 581.811 370.071 C 581.236 368.844 580.948 367.419 580.948 365.797 C 580.948 364.197 581.236 362.788 581.811 361.572 C 582.388 360.357 583.199 359.418 584.245 358.756 C 585.29 358.094 586.496 357.762 587.861 357.762 C 589.078 357.762 590.14 358.029 591.047 358.563 C 591.954 359.097 592.642 359.855 593.111 360.837 L 593.111 352.259 C 593.111 351.874 593.223 351.569 593.447 351.345 C 593.671 351.121 593.986 351.009 594.392 351.009 Z M 588.375 371.816 C 589.889 371.816 591.057 371.298 591.879 370.263 C 592.7 369.228 593.111 367.761 593.111 365.861 C 593.111 363.963 592.7 362.501 591.879 361.477 C 591.057 360.452 589.889 359.939 588.375 359.939 C 586.859 359.939 585.68 360.452 584.837 361.477 C 583.994 362.501 583.572 363.942 583.572 365.797 C 583.572 367.696 583.994 369.175 584.837 370.232 C 585.68 371.288 586.859 371.816 588.375 371.816 Z M 606.873 357.762 C 610.778 357.762 612.731 359.812 612.731 363.91 L 612.731 372.617 C 612.731 373 612.619 373.309 612.395 373.544 C 612.171 373.778 611.866 373.895 611.481 373.895 C 611.098 373.895 610.789 373.778 610.554 373.544 C 610.32 373.309 610.202 373 610.202 372.617 L 610.202 371.079 C 609.797 371.997 609.178 372.706 608.344 373.207 C 607.512 373.709 606.552 373.96 605.464 373.96 C 604.461 373.96 603.538 373.757 602.694 373.351 C 601.853 372.946 601.186 372.38 600.695 371.655 C 600.204 370.929 599.958 370.129 599.958 369.254 C 599.958 368.08 600.257 367.168 600.854 366.518 C 601.453 365.868 602.435 365.398 603.801 365.109 C 605.166 364.821 607.065 364.678 609.497 364.678 L 610.202 364.678 L 610.202 363.62 C 610.202 362.34 609.941 361.401 609.417 360.804 C 608.895 360.207 608.047 359.908 606.873 359.908 C 605.422 359.908 603.95 360.303 602.456 361.092 C 601.879 361.454 601.473 361.636 601.239 361.636 C 600.982 361.636 600.769 361.54 600.6 361.348 C 600.429 361.157 600.343 360.911 600.343 360.612 C 600.343 360.314 600.434 360.053 600.615 359.829 C 600.796 359.604 601.09 359.375 601.496 359.141 C 602.242 358.713 603.09 358.377 604.039 358.132 C 604.989 357.886 605.934 357.762 606.873 357.762 Z M 605.816 371.911 C 607.096 371.911 608.147 371.479 608.97 370.615 C 609.792 369.751 610.202 368.636 610.202 367.27 L 610.202 366.341 L 609.625 366.341 C 607.748 366.341 606.318 366.421 605.336 366.582 C 604.355 366.741 603.656 367.008 603.239 367.383 C 602.823 367.756 602.615 368.305 602.615 369.031 C 602.615 369.863 602.919 370.551 603.528 371.095 C 604.136 371.639 604.899 371.911 605.816 371.911 Z M 624.668 371.847 C 625.414 371.912 625.787 372.253 625.787 372.871 C 625.787 373.234 625.654 373.506 625.389 373.688 C 625.122 373.869 624.721 373.938 624.188 373.895 L 623.323 373.831 C 621.617 373.705 620.358 373.193 619.547 372.296 C 618.735 371.4 618.33 370.044 618.33 368.23 L 618.33 360.196 L 616.184 360.196 C 615.821 360.196 615.539 360.105 615.337 359.924 C 615.135 359.742 615.034 359.503 615.034 359.205 C 615.034 358.885 615.135 358.628 615.337 358.435 C 615.539 358.243 615.821 358.147 616.184 358.147 L 618.33 358.147 L 618.33 354.531 C 618.33 354.125 618.447 353.81 618.682 353.586 C 618.916 353.362 619.236 353.25 619.642 353.25 C 620.027 353.25 620.336 353.362 620.571 353.586 C 620.805 353.81 620.923 354.125 620.923 354.531 L 620.923 358.147 L 624.475 358.147 C 624.817 358.147 625.09 358.243 625.292 358.435 C 625.495 358.628 625.597 358.885 625.597 359.205 C 625.597 359.503 625.495 359.742 625.292 359.924 C 625.09 360.105 624.817 360.196 624.475 360.196 L 620.923 360.196 L 620.923 368.359 C 620.923 369.532 621.163 370.38 621.644 370.902 C 622.123 371.426 622.843 371.719 623.803 371.783 L 624.668 371.847 Z M 634.718 357.762 C 638.623 357.762 640.575 359.812 640.575 363.91 L 640.575 372.617 C 640.575 373 640.463 373.309 640.239 373.544 C 640.015 373.778 639.71 373.895 639.325 373.895 C 638.942 373.895 638.633 373.778 638.399 373.544 C 638.164 373.309 638.047 373 638.047 372.617 L 638.047 371.079 C 637.641 371.997 637.022 372.706 636.189 373.207 C 635.357 373.709 634.397 373.96 633.308 373.96 C 632.306 373.96 631.382 373.757 630.539 373.351 C 629.697 372.946 629.03 372.38 628.539 371.655 C 628.048 370.929 627.802 370.129 627.802 369.254 C 627.802 368.08 628.101 367.168 628.698 366.518 C 629.297 365.868 630.279 365.398 631.645 365.109 C 633.01 364.821 634.909 364.678 637.341 364.678 L 638.047 364.678 L 638.047 363.62 C 638.047 362.34 637.785 361.401 637.262 360.804 C 636.739 360.207 635.892 359.908 634.718 359.908 C 633.266 359.908 631.794 360.303 630.3 361.092 C 629.723 361.454 629.318 361.636 629.083 361.636 C 628.827 361.636 628.614 361.54 628.444 361.348 C 628.273 361.157 628.187 360.911 628.187 360.612 C 628.187 360.314 628.278 360.053 628.459 359.829 C 628.641 359.604 628.934 359.375 629.34 359.141 C 630.086 358.713 630.934 358.377 631.884 358.132 C 632.834 357.886 633.778 357.762 634.718 357.762 Z M 633.66 371.911 C 634.94 371.911 635.992 371.479 636.815 370.615 C 637.636 369.751 638.047 368.636 638.047 367.27 L 638.047 366.341 L 637.469 366.341 C 635.592 366.341 634.162 366.421 633.18 366.582 C 632.2 366.741 631.5 367.008 631.083 367.383 C 630.667 367.756 630.459 368.305 630.459 369.031 C 630.459 369.863 630.764 370.551 631.373 371.095 C 631.981 371.639 632.743 371.911 633.66 371.911 Z M 659.938 357.762 C 663.843 357.762 665.795 359.812 665.795 363.91 L 665.795 372.617 C 665.795 373 665.683 373.309 665.459 373.544 C 665.235 373.778 664.93 373.895 664.545 373.895 C 664.162 373.895 663.853 373.778 663.618 373.544 C 663.384 373.309 663.267 373 663.267 372.617 L 663.267 371.079 C 662.861 371.997 662.242 372.706 661.409 373.207 C 660.577 373.709 659.617 373.96 658.528 373.96 C 657.526 373.96 656.602 373.757 655.759 373.351 C 654.917 372.946 654.25 372.38 653.759 371.655 C 653.268 370.929 653.022 370.129 653.022 369.254 C 653.022 368.08 653.321 367.168 653.918 366.518 C 654.517 365.868 655.499 365.398 656.865 365.109 C 658.23 364.821 660.129 364.678 662.561 364.678 L 663.267 364.678 L 663.267 363.62 C 663.267 362.34 663.005 361.401 662.481 360.804 C 661.959 360.207 661.111 359.908 659.938 359.908 C 658.486 359.908 657.014 360.303 655.52 361.092 C 654.943 361.454 654.538 361.636 654.303 361.636 C 654.047 361.636 653.834 361.54 653.664 361.348 C 653.493 361.157 653.407 360.911 653.407 360.612 C 653.407 360.314 653.498 360.053 653.679 359.829 C 653.861 359.604 654.154 359.375 654.56 359.141 C 655.306 358.713 656.154 358.377 657.104 358.132 C 658.053 357.886 658.998 357.762 659.938 357.762 Z M 658.88 371.911 C 660.16 371.911 661.212 371.479 662.035 370.615 C 662.856 369.751 663.267 368.636 663.267 367.27 L 663.267 366.341 L 662.689 366.341 C 660.812 366.341 659.382 366.421 658.4 366.582 C 657.419 366.741 656.72 367.008 656.303 367.383 C 655.887 367.756 655.679 368.305 655.679 369.031 C 655.679 369.863 655.984 370.551 656.593 371.095 C 657.2 371.639 657.963 371.911 658.88 371.911 Z M 678.371 357.762 C 682.107 357.762 683.975 359.822 683.975 363.941 L 683.975 372.617 C 683.975 373.021 683.862 373.335 683.638 373.559 C 683.414 373.783 683.099 373.895 682.694 373.895 C 682.288 373.895 681.968 373.783 681.734 373.559 C 681.499 373.335 681.382 373.021 681.382 372.617 L 681.382 364.102 C 681.382 362.651 681.099 361.595 680.533 360.932 C 679.968 360.27 679.066 359.939 677.827 359.939 C 676.398 359.939 675.257 360.377 674.403 361.253 C 673.549 362.128 673.122 363.312 673.122 364.806 L 673.122 372.617 C 673.122 373.021 673.01 373.335 672.786 373.559 C 672.561 373.783 672.247 373.895 671.843 373.895 C 671.438 373.895 671.117 373.783 670.881 373.559 C 670.647 373.335 670.529 373.021 670.529 372.617 L 670.529 359.107 C 670.529 358.724 670.647 358.415 670.881 358.181 C 671.117 357.945 671.438 357.827 671.843 357.827 C 672.227 357.827 672.53 357.945 672.755 358.181 C 672.979 358.415 673.091 358.714 673.091 359.076 L 673.091 360.709 C 673.603 359.749 674.317 359.018 675.235 358.517 C 676.153 358.014 677.199 357.762 678.371 357.762 Z M 695.079 357.762 C 698.984 357.762 700.937 359.812 700.937 363.91 L 700.937 372.617 C 700.937 373 700.825 373.309 700.6 373.544 C 700.376 373.778 700.072 373.895 699.687 373.895 C 699.304 373.895 698.994 373.778 698.76 373.544 C 698.526 373.309 698.408 373 698.408 372.617 L 698.408 371.079 C 698.003 371.997 697.383 372.706 696.55 373.207 C 695.718 373.709 694.758 373.96 693.67 373.96 C 692.667 373.96 691.744 373.757 690.9 373.351 C 690.058 372.946 689.392 372.38 688.901 371.655 C 688.409 370.929 688.164 370.129 688.164 369.254 C 688.164 368.08 688.463 367.168 689.06 366.518 C 689.659 365.868 690.641 365.398 692.006 365.109 C 693.372 364.821 695.271 364.678 697.703 364.678 L 698.408 364.678 L 698.408 363.62 C 698.408 362.34 698.147 361.401 697.623 360.804 C 697.101 360.207 696.253 359.908 695.079 359.908 C 693.628 359.908 692.155 360.303 690.661 361.092 C 690.085 361.454 689.679 361.636 689.445 361.636 C 689.188 361.636 688.975 361.54 688.805 361.348 C 688.634 361.157 688.549 360.911 688.549 360.612 C 688.549 360.314 688.64 360.053 688.821 359.829 C 689.002 359.604 689.296 359.375 689.701 359.141 C 690.448 358.713 691.296 358.377 692.245 358.132 C 693.195 357.886 694.14 357.762 695.079 357.762 Z M 694.022 371.911 C 695.302 371.911 696.353 371.479 697.176 370.615 C 697.997 369.751 698.408 368.636 698.408 367.27 L 698.408 366.341 L 697.831 366.341 C 695.953 366.341 694.524 366.421 693.542 366.582 C 692.561 366.741 691.862 367.008 691.445 367.383 C 691.029 367.756 690.821 368.305 690.821 369.031 C 690.821 369.863 691.125 370.551 691.734 371.095 C 692.342 371.639 693.104 371.911 694.022 371.911 Z M 706.985 373.895 C 706.6 373.895 706.285 373.783 706.04 373.559 C 705.794 373.335 705.671 373.021 705.671 372.617 L 705.671 352.29 C 705.671 351.884 705.794 351.569 706.04 351.345 C 706.285 351.121 706.6 351.009 706.985 351.009 C 707.348 351.009 707.651 351.121 707.896 351.345 C 708.141 351.569 708.263 351.884 708.263 352.29 L 708.263 372.617 C 708.263 373.021 708.141 373.335 707.896 373.559 C 707.651 373.783 707.348 373.895 706.985 373.895 Z M 724.331 358.627 C 724.566 358.116 724.94 357.86 725.453 357.86 C 725.773 357.86 726.06 357.967 726.315 358.181 C 726.572 358.393 726.7 358.659 726.7 358.979 C 726.7 359.172 726.658 359.343 726.572 359.492 L 717.578 378.89 C 717.471 379.125 717.317 379.306 717.113 379.435 C 716.911 379.561 716.703 379.625 716.489 379.625 C 716.169 379.625 715.887 379.524 715.642 379.322 C 715.396 379.12 715.273 378.858 715.273 378.536 C 715.273 378.367 715.315 378.196 715.401 378.025 L 717.642 373.192 L 711.304 359.492 C 711.218 359.343 711.176 359.183 711.176 359.012 C 711.176 358.692 711.32 358.415 711.607 358.181 C 711.896 357.945 712.211 357.827 712.552 357.827 C 712.766 357.827 712.974 357.891 713.176 358.019 C 713.379 358.147 713.534 358.329 713.64 358.563 L 718.987 370.566 L 724.331 358.627 Z M 734.508 373.96 C 733.527 373.96 732.593 373.842 731.707 373.608 C 730.822 373.373 730.038 373.043 729.356 372.617 C 728.971 372.36 728.699 372.12 728.54 371.896 C 728.379 371.672 728.298 371.4 728.298 371.079 C 728.298 370.802 728.379 370.573 728.54 370.391 C 728.699 370.21 728.907 370.119 729.163 370.119 C 729.418 370.119 729.792 370.279 730.283 370.599 C 730.923 370.983 731.558 371.287 732.187 371.511 C 732.817 371.735 733.602 371.847 734.541 371.847 C 735.693 371.847 736.589 371.644 737.229 371.239 C 737.869 370.833 738.189 370.246 738.189 369.478 C 738.189 369.009 738.072 368.631 737.837 368.343 C 737.603 368.054 737.197 367.798 736.62 367.575 C 736.045 367.351 735.202 367.121 734.092 366.885 C 732.215 366.48 730.87 365.936 730.059 365.253 C 729.248 364.57 728.843 363.642 728.843 362.47 C 728.843 361.551 729.098 360.74 729.61 360.037 C 730.123 359.332 730.834 358.776 731.741 358.371 C 732.647 357.965 733.677 357.762 734.829 357.762 C 735.66 357.762 736.466 357.875 737.246 358.099 C 738.025 358.323 738.713 358.638 739.31 359.043 C 740.036 359.556 740.399 360.09 740.399 360.645 C 740.399 360.922 740.313 361.157 740.142 361.348 C 739.971 361.54 739.768 361.636 739.534 361.636 C 739.277 361.636 738.893 361.454 738.381 361.092 C 737.784 360.708 737.218 360.41 736.685 360.196 C 736.152 359.982 735.491 359.875 734.7 359.875 C 733.697 359.875 732.892 360.099 732.285 360.548 C 731.675 360.996 731.371 361.594 731.371 362.342 C 731.371 362.811 731.483 363.189 731.707 363.476 C 731.931 363.765 732.305 364.022 732.829 364.246 C 733.351 364.47 734.103 364.689 735.085 364.901 C 736.536 365.221 737.661 365.573 738.461 365.958 C 739.262 366.342 739.833 366.811 740.175 367.365 C 740.516 367.921 740.686 368.626 740.686 369.478 C 740.686 370.823 740.121 371.906 738.99 372.727 C 737.858 373.549 736.364 373.96 734.508 373.96 Z M 745.935 373.895 C 745.55 373.895 745.235 373.783 744.99 373.559 C 744.744 373.335 744.621 373.021 744.621 372.617 L 744.621 359.107 C 744.621 358.702 744.744 358.387 744.99 358.163 C 745.235 357.939 745.55 357.827 745.935 357.827 C 746.318 357.827 746.627 357.939 746.862 358.163 C 747.096 358.387 747.213 358.702 747.213 359.107 L 747.213 372.617 C 747.213 373.043 747.096 373.363 746.862 373.577 C 746.627 373.789 746.318 373.895 745.935 373.895 Z M 745.935 354.466 C 745.422 354.466 745.005 354.317 744.685 354.017 C 744.365 353.719 744.205 353.325 744.205 352.834 C 744.205 352.365 744.365 351.981 744.685 351.681 C 745.005 351.383 745.422 351.234 745.935 351.234 C 746.447 351.234 746.863 351.383 747.182 351.681 C 747.503 351.981 747.662 352.365 747.662 352.834 C 747.662 353.325 747.503 353.719 747.182 354.017 C 746.863 354.317 746.447 354.466 745.935 354.466 Z M 757.295 373.96 C 756.315 373.96 755.381 373.842 754.495 373.608 C 753.61 373.373 752.826 373.043 752.143 372.617 C 751.758 372.36 751.486 372.12 751.327 371.896 C 751.166 371.672 751.086 371.4 751.086 371.079 C 751.086 370.802 751.166 370.573 751.327 370.391 C 751.486 370.21 751.694 370.119 751.951 370.119 C 752.206 370.119 752.579 370.279 753.07 370.599 C 753.71 370.983 754.345 371.287 754.975 371.511 C 755.605 371.735 756.389 371.847 757.329 371.847 C 758.48 371.847 759.376 371.644 760.016 371.239 C 760.656 370.833 760.976 370.246 760.976 369.478 C 760.976 369.009 760.859 368.631 760.625 368.343 C 760.39 368.054 759.985 367.798 759.408 367.575 C 758.833 367.351 757.99 367.121 756.879 366.885 C 755.002 366.48 753.658 365.936 752.847 365.253 C 752.036 364.57 751.63 363.642 751.63 362.47 C 751.63 361.551 751.886 360.74 752.398 360.037 C 752.911 359.332 753.621 358.776 754.528 358.371 C 755.435 357.965 756.464 357.762 757.616 357.762 C 758.448 357.762 759.254 357.875 760.034 358.099 C 760.813 358.323 761.501 358.638 762.098 359.043 C 762.823 359.556 763.186 360.09 763.186 360.645 C 763.186 360.922 763.101 361.157 762.93 361.348 C 762.759 361.54 762.556 361.636 762.321 361.636 C 762.065 361.636 761.68 361.454 761.169 361.092 C 760.572 360.708 760.006 360.41 759.472 360.196 C 758.94 359.982 758.278 359.875 757.488 359.875 C 756.485 359.875 755.68 360.099 755.072 360.548 C 754.463 360.996 754.159 361.594 754.159 362.342 C 754.159 362.811 754.271 363.189 754.495 363.476 C 754.719 363.765 755.093 364.022 755.616 364.246 C 756.138 364.47 756.891 364.689 757.873 364.901 C 759.324 365.221 760.449 365.573 761.248 365.958 C 762.049 366.342 762.621 366.811 762.963 367.365 C 763.303 367.921 763.474 368.626 763.474 369.478 C 763.474 370.823 762.908 371.906 761.777 372.727 C 760.646 373.549 759.152 373.96 757.295 373.96 Z M 782.037 357.762 C 785.942 357.762 787.894 359.812 787.894 363.91 L 787.894 372.617 C 787.894 373 787.782 373.309 787.558 373.544 C 787.334 373.778 787.029 373.895 786.644 373.895 C 786.261 373.895 785.952 373.778 785.718 373.544 C 785.483 373.309 785.366 373 785.366 372.617 L 785.366 371.079 C 784.96 371.997 784.341 372.706 783.508 373.207 C 782.676 373.709 781.716 373.96 780.627 373.96 C 779.625 373.96 778.701 373.757 777.858 373.351 C 777.016 372.946 776.349 372.38 775.858 371.655 C 775.367 370.929 775.122 370.129 775.122 369.254 C 775.122 368.08 775.42 367.168 776.017 366.518 C 776.616 365.868 777.598 365.398 778.964 365.109 C 780.329 364.821 782.228 364.678 784.66 364.678 L 785.366 364.678 L 785.366 363.62 C 785.366 362.34 785.104 361.401 784.581 360.804 C 784.058 360.207 783.211 359.908 782.037 359.908 C 780.585 359.908 779.113 360.303 777.619 361.092 C 777.042 361.454 776.637 361.636 776.402 361.636 C 776.146 361.636 775.933 361.54 775.763 361.348 C 775.592 361.157 775.506 360.911 775.506 360.612 C 775.506 360.314 775.597 360.053 775.779 359.829 C 775.96 359.604 776.253 359.375 776.659 359.141 C 777.405 358.713 778.253 358.377 779.203 358.132 C 780.153 357.886 781.097 357.762 782.037 357.762 Z M 780.979 371.911 C 782.259 371.911 783.311 371.479 784.134 370.615 C 784.955 369.751 785.366 368.636 785.366 367.27 L 785.366 366.341 L 784.788 366.341 C 782.911 366.341 781.481 366.421 780.499 366.582 C 779.519 366.741 778.82 367.008 778.402 367.383 C 777.986 367.756 777.778 368.305 777.778 369.031 C 777.778 369.863 778.083 370.551 778.692 371.095 C 779.3 371.639 780.062 371.911 780.979 371.911 Z M 800.47 357.762 C 804.206 357.762 806.073 359.822 806.073 363.941 L 806.073 372.617 C 806.073 373.021 805.962 373.335 805.737 373.559 C 805.513 373.783 805.198 373.895 804.793 373.895 C 804.387 373.895 804.067 373.783 803.833 373.559 C 803.598 373.335 803.481 373.021 803.481 372.617 L 803.481 364.102 C 803.481 362.651 803.198 361.595 802.631 360.932 C 802.067 360.27 801.165 359.939 799.926 359.939 C 798.497 359.939 797.356 360.377 796.502 361.253 C 795.648 362.128 795.221 363.312 795.221 364.806 L 795.221 372.617 C 795.221 373.021 795.109 373.335 794.885 373.559 C 794.66 373.783 794.346 373.895 793.942 373.895 C 793.537 373.895 793.216 373.783 792.98 373.559 C 792.745 373.335 792.628 373.021 792.628 372.617 L 792.628 359.107 C 792.628 358.724 792.745 358.415 792.98 358.181 C 793.216 357.945 793.537 357.827 793.942 357.827 C 794.326 357.827 794.63 357.945 794.854 358.181 C 795.078 358.415 795.19 358.714 795.19 359.076 L 795.19 360.709 C 795.702 359.749 796.416 359.018 797.333 358.517 C 798.252 358.014 799.298 357.762 800.47 357.762 Z M 823.323 351.009 C 823.729 351.009 824.049 351.126 824.283 351.361 C 824.518 351.597 824.635 351.896 824.635 352.259 L 824.635 372.617 C 824.635 373 824.518 373.309 824.283 373.544 C 824.049 373.778 823.729 373.895 823.323 373.895 C 822.918 373.895 822.603 373.778 822.379 373.544 C 822.154 373.309 822.043 373 822.043 372.617 L 822.043 370.887 C 821.574 371.869 820.886 372.627 819.979 373.161 C 819.072 373.693 818.01 373.96 816.793 373.96 C 815.427 373.96 814.222 373.618 813.176 372.935 C 812.131 372.252 811.32 371.298 810.743 370.071 C 810.168 368.844 809.88 367.419 809.88 365.797 C 809.88 364.197 810.168 362.788 810.743 361.572 C 811.32 360.357 812.131 359.418 813.176 358.756 C 814.222 358.094 815.427 357.762 816.793 357.762 C 818.01 357.762 819.072 358.029 819.979 358.563 C 820.886 359.097 821.574 359.855 822.043 360.837 L 822.043 352.259 C 822.043 351.874 822.154 351.569 822.379 351.345 C 822.603 351.121 822.918 351.009 823.323 351.009 Z M 817.306 371.816 C 818.821 371.816 819.989 371.298 820.81 370.263 C 821.632 369.228 822.043 367.761 822.043 365.861 C 822.043 363.963 821.632 362.501 820.81 361.477 C 819.989 360.452 818.821 359.939 817.306 359.939 C 815.79 359.939 814.611 360.452 813.769 361.477 C 812.926 362.501 812.504 363.942 812.504 365.797 C 812.504 367.696 812.926 369.175 813.769 370.232 C 814.611 371.288 815.79 371.816 817.306 371.816 Z M 855.041 357.762 C 858.498 357.762 860.226 359.822 860.226 363.941 L 860.226 372.617 C 860.226 373.021 860.109 373.335 859.874 373.559 C 859.64 373.783 859.33 373.895 858.945 373.895 C 858.562 373.895 858.247 373.783 858.001 373.559 C 857.756 373.335 857.634 373.021 857.634 372.617 L 857.634 364.005 C 857.634 362.576 857.378 361.541 856.866 360.901 C 856.353 360.26 855.553 359.939 854.466 359.939 C 853.164 359.939 852.139 360.377 851.391 361.253 C 850.645 362.128 850.272 363.312 850.272 364.806 L 850.272 372.617 C 850.272 373.021 850.149 373.335 849.904 373.559 C 849.658 373.783 849.343 373.895 848.96 373.895 C 848.575 373.895 848.265 373.783 848.031 373.559 C 847.796 373.335 847.679 373.021 847.679 372.617 L 847.679 364.005 C 847.679 362.576 847.423 361.541 846.911 360.901 C 846.398 360.26 845.587 359.939 844.478 359.939 C 843.198 359.939 842.179 360.377 841.421 361.253 C 840.663 362.128 840.284 363.312 840.284 364.806 L 840.284 372.617 C 840.284 373.021 840.167 373.335 839.932 373.559 C 839.698 373.783 839.389 373.895 839.005 373.895 C 838.62 373.895 838.305 373.783 838.061 373.559 C 837.814 373.335 837.691 373.021 837.691 372.617 L 837.691 359.107 C 837.691 358.724 837.814 358.415 838.061 358.181 C 838.305 357.945 838.62 357.827 839.005 357.827 C 839.368 357.827 839.667 357.939 839.901 358.163 C 840.136 358.387 840.253 358.692 840.253 359.076 L 840.253 360.612 C 840.722 359.694 841.373 358.99 842.206 358.499 C 843.038 358.008 843.998 357.762 845.086 357.762 C 847.518 357.762 849.108 358.787 849.856 360.837 C 850.304 359.898 850.987 359.151 851.904 358.596 C 852.821 358.041 853.867 357.762 855.041 357.762 Z M 871.425 373.96 C 869.954 373.96 868.657 373.629 867.537 372.969 C 866.416 372.306 865.552 371.362 864.944 370.135 C 864.337 368.908 864.033 367.483 864.033 365.861 C 864.033 364.24 864.337 362.816 864.944 361.589 C 865.552 360.362 866.416 359.418 867.537 358.756 C 868.657 358.094 869.954 357.762 871.425 357.762 C 872.899 357.762 874.201 358.094 875.332 358.756 C 876.462 359.418 877.331 360.362 877.94 361.589 C 878.548 362.816 878.852 364.24 878.852 365.861 C 878.852 367.483 878.548 368.908 877.94 370.135 C 877.331 371.362 876.462 372.306 875.332 372.969 C 874.201 373.629 872.899 373.96 871.425 373.96 Z M 871.425 371.816 C 872.962 371.816 874.141 371.309 874.963 370.294 C 875.784 369.281 876.195 367.803 876.195 365.861 C 876.195 363.963 875.779 362.496 874.947 361.461 C 874.115 360.426 872.942 359.908 871.425 359.908 C 869.911 359.908 868.737 360.426 867.904 361.461 C 867.072 362.496 866.656 363.963 866.656 365.861 C 866.656 367.783 867.067 369.255 867.888 370.279 C 868.71 371.303 869.889 371.816 871.425 371.816 Z M 895.239 351.009 C 895.644 351.009 895.964 351.126 896.199 351.361 C 896.433 351.597 896.55 351.896 896.55 352.259 L 896.55 372.617 C 896.55 373 896.433 373.309 896.199 373.544 C 895.964 373.778 895.644 373.895 895.239 373.895 C 894.833 373.895 894.518 373.778 894.294 373.544 C 894.07 373.309 893.958 373 893.958 372.617 L 893.958 370.887 C 893.489 371.869 892.801 372.627 891.894 373.161 C 890.987 373.693 889.925 373.96 888.708 373.96 C 887.343 373.96 886.137 373.618 885.092 372.935 C 884.046 372.252 883.235 371.298 882.658 370.071 C 882.083 368.844 881.795 367.419 881.795 365.797 C 881.795 364.197 882.083 362.788 882.658 361.572 C 883.235 360.357 884.046 359.418 885.092 358.756 C 886.137 358.094 887.343 357.762 888.708 357.762 C 889.925 357.762 890.987 358.029 891.894 358.563 C 892.801 359.097 893.489 359.855 893.958 360.837 L 893.958 352.259 C 893.958 351.874 894.07 351.569 894.294 351.345 C 894.518 351.121 894.833 351.009 895.239 351.009 Z M 889.222 371.816 C 890.736 371.816 891.904 371.298 892.726 370.263 C 893.547 369.228 893.958 367.761 893.958 365.861 C 893.958 363.963 893.547 362.501 892.726 361.477 C 891.904 360.452 890.736 359.939 889.222 359.939 C 887.705 359.939 886.526 360.452 885.684 361.477 C 884.841 362.501 884.419 363.942 884.419 365.797 C 884.419 367.696 884.841 369.175 885.684 370.232 C 886.526 371.288 887.705 371.816 889.222 371.816 Z M 913.416 370.119 C 913.652 370.119 913.855 370.215 914.025 370.407 C 914.196 370.599 914.281 370.844 914.281 371.144 C 914.281 371.677 913.908 372.168 913.162 372.617 C 912.394 373.064 911.583 373.399 910.729 373.623 C 909.875 373.847 909.042 373.96 908.231 373.96 C 905.82 373.96 903.915 373.245 902.517 371.816 C 901.121 370.385 900.422 368.412 900.422 365.894 C 900.422 364.294 900.731 362.881 901.349 361.654 C 901.969 360.427 902.839 359.472 903.96 358.789 C 905.079 358.105 906.354 357.762 907.784 357.762 C 909.811 357.762 911.422 358.425 912.618 359.749 C 913.812 361.072 914.41 362.864 914.41 365.127 C 914.41 365.553 914.324 365.862 914.153 366.053 C 913.982 366.245 913.705 366.341 913.321 366.341 L 903.015 366.341 C 903.207 370.012 904.946 371.847 908.231 371.847 C 909.064 371.847 909.78 371.735 910.377 371.511 C 910.974 371.287 911.614 370.983 912.297 370.599 C 912.852 370.279 913.225 370.119 913.416 370.119 Z M 907.815 359.78 C 906.45 359.78 905.356 360.207 904.535 361.061 C 903.713 361.915 903.228 363.12 903.079 364.678 L 912.138 364.678 C 912.095 363.098 911.7 361.887 910.952 361.045 C 910.206 360.202 909.16 359.78 907.815 359.78 Z M 919.53 373.895 C 919.145 373.895 918.83 373.783 918.585 373.559 C 918.339 373.335 918.216 373.021 918.216 372.617 L 918.216 352.29 C 918.216 351.884 918.339 351.569 918.585 351.345 C 918.83 351.121 919.145 351.009 919.53 351.009 C 919.893 351.009 920.197 351.121 920.441 351.345 C 920.686 351.569 920.808 351.884 920.808 352.29 L 920.808 372.617 C 920.808 373.021 920.686 373.335 920.441 373.559 C 920.197 373.783 919.893 373.895 919.53 373.895 Z M 926.955 373.895 C 926.57 373.895 926.255 373.783 926.01 373.559 C 925.764 373.335 925.641 373.021 925.641 372.617 L 925.641 352.29 C 925.641 351.884 925.764 351.569 926.01 351.345 C 926.255 351.121 926.57 351.009 926.955 351.009 C 927.318 351.009 927.622 351.121 927.866 351.345 C 928.111 351.569 928.234 351.884 928.234 352.29 L 928.234 372.617 C 928.234 373.021 928.111 373.335 927.866 373.559 C 927.622 373.783 927.318 373.895 926.955 373.895 Z M 934.38 373.895 C 933.995 373.895 933.681 373.783 933.436 373.559 C 933.189 373.335 933.066 373.021 933.066 372.617 L 933.066 359.107 C 933.066 358.702 933.189 358.387 933.436 358.163 C 933.681 357.939 933.995 357.827 934.38 357.827 C 934.764 357.827 935.073 357.939 935.307 358.163 C 935.542 358.387 935.659 358.702 935.659 359.107 L 935.659 372.617 C 935.659 373.043 935.542 373.363 935.307 373.577 C 935.073 373.789 934.764 373.895 934.38 373.895 Z M 934.38 354.466 C 933.867 354.466 933.45 354.317 933.13 354.017 C 932.81 353.719 932.65 353.325 932.65 352.834 C 932.65 352.365 932.81 351.981 933.13 351.681 C 933.45 351.383 933.867 351.234 934.38 351.234 C 934.892 351.234 935.308 351.383 935.628 351.681 C 935.948 351.981 936.108 352.365 936.108 352.834 C 936.108 353.325 935.948 353.719 935.628 354.017 C 935.308 354.317 934.892 354.466 934.38 354.466 Z M 948.333 357.762 C 952.069 357.762 953.937 359.822 953.937 363.941 L 953.937 372.617 C 953.937 373.021 953.825 373.335 953.6 373.559 C 953.376 373.783 953.062 373.895 952.656 373.895 C 952.25 373.895 951.93 373.783 951.696 373.559 C 951.461 373.335 951.344 373.021 951.344 372.617 L 951.344 364.102 C 951.344 362.651 951.061 361.595 950.495 360.932 C 949.93 360.27 949.028 359.939 947.789 359.939 C 946.36 359.939 945.219 360.377 944.365 361.253 C 943.511 362.128 943.084 363.312 943.084 364.806 L 943.084 372.617 C 943.084 373.021 942.972 373.335 942.748 373.559 C 942.524 373.783 942.21 373.895 941.805 373.895 C 941.4 373.895 941.079 373.783 940.843 373.559 C 940.609 373.335 940.491 373.021 940.491 372.617 L 940.491 359.107 C 940.491 358.724 940.609 358.415 940.843 358.181 C 941.079 357.945 941.4 357.827 941.805 357.827 C 942.189 357.827 942.493 357.945 942.717 358.181 C 942.941 358.415 943.053 358.714 943.053 359.076 L 943.053 360.709 C 943.565 359.749 944.279 359.018 945.197 358.517 C 946.116 358.014 947.161 357.762 948.333 357.762 Z M 971.315 357.827 C 971.72 357.827 972.04 357.945 972.275 358.181 C 972.509 358.415 972.626 358.724 972.626 359.107 L 972.626 372.679 C 972.626 375.006 972.029 376.762 970.835 377.946 C 969.64 379.13 967.869 379.722 965.521 379.722 C 963.238 379.722 961.339 379.274 959.823 378.377 C 959.054 377.951 958.67 377.461 958.67 376.906 C 958.67 376.607 958.751 376.361 958.911 376.169 C 959.071 375.976 959.278 375.88 959.535 375.88 C 959.749 375.88 960.133 376.029 960.688 376.329 C 961.434 376.714 962.17 377.023 962.895 377.258 C 963.621 377.492 964.485 377.61 965.488 377.61 C 967.004 377.61 968.146 377.209 968.914 376.408 C 969.683 375.609 970.067 374.441 970.067 372.904 L 970.067 370.15 C 969.619 371.153 968.93 371.922 968.001 372.455 C 967.073 372.989 965.98 373.256 964.72 373.256 C 963.355 373.256 962.144 372.936 961.088 372.296 C 960.031 371.656 959.209 370.749 958.624 369.575 C 958.037 368.401 957.743 367.046 957.743 365.509 C 957.743 363.973 958.037 362.618 958.624 361.446 C 959.209 360.272 960.031 359.365 961.088 358.725 C 962.144 358.083 963.355 357.762 964.72 357.762 C 965.958 357.762 967.036 358.029 967.954 358.563 C 968.872 359.097 969.565 359.855 970.034 360.837 L 970.034 359.107 C 970.034 358.724 970.146 358.415 970.37 358.181 C 970.594 357.945 970.909 357.827 971.315 357.827 Z M 965.234 371.11 C 966.726 371.11 967.899 370.615 968.753 369.624 C 969.607 368.631 970.034 367.26 970.034 365.509 C 970.034 363.781 969.613 362.421 968.771 361.428 C 967.927 360.435 966.748 359.939 965.234 359.939 C 963.718 359.939 962.527 360.435 961.663 361.428 C 960.799 362.421 960.367 363.781 960.367 365.509 C 960.367 367.26 960.799 368.631 961.663 369.624 C 962.527 370.615 963.718 371.11 965.234 371.11 Z M 997.749 370.119 C 997.986 370.119 998.188 370.215 998.358 370.407 C 998.529 370.599 998.614 370.844 998.614 371.144 C 998.614 371.677 998.241 372.168 997.495 372.617 C 996.727 373.064 995.916 373.399 995.062 373.623 C 994.208 373.847 993.375 373.96 992.564 373.96 C 990.153 373.96 988.248 373.245 986.85 371.816 C 985.454 370.385 984.755 368.412 984.755 365.894 C 984.755 364.294 985.065 362.881 985.682 361.654 C 986.302 360.427 987.172 359.472 988.293 358.789 C 989.412 358.105 990.687 357.762 992.117 357.762 C 994.144 357.762 995.755 358.425 996.951 359.749 C 998.145 361.072 998.743 362.864 998.743 365.127 C 998.743 365.553 998.657 365.862 998.486 366.053 C 998.315 366.245 998.038 366.341 997.654 366.341 L 987.348 366.341 C 987.54 370.012 989.279 371.847 992.564 371.847 C 993.398 371.847 994.113 371.735 994.71 371.511 C 995.307 371.287 995.947 370.983 996.63 370.599 C 997.185 370.279 997.558 370.119 997.749 370.119 Z M 992.148 359.78 C 990.783 359.78 989.689 360.207 988.868 361.061 C 988.046 361.915 987.561 363.12 987.412 364.678 L 996.471 364.678 C 996.428 363.098 996.033 361.887 995.285 361.045 C 994.539 360.202 993.493 359.78 992.148 359.78 Z M 1008.92 357.762 C 1012.825 357.762 1014.778 359.812 1014.778 363.91 L 1014.778 372.617 C 1014.778 373 1014.666 373.309 1014.441 373.544 C 1014.217 373.778 1013.913 373.895 1013.528 373.895 C 1013.145 373.895 1012.835 373.778 1012.601 373.544 C 1012.367 373.309 1012.249 373 1012.249 372.617 L 1012.249 371.079 C 1011.844 371.997 1011.224 372.706 1010.391 373.207 C 1009.559 373.709 1008.599 373.96 1007.511 373.96 C 1006.508 373.96 1005.585 373.757 1004.741 373.351 C 1003.899 372.946 1003.233 372.38 1002.742 371.655 C 1002.25 370.929 1002.005 370.129 1002.005 369.254 C 1002.005 368.08 1002.304 367.168 1002.901 366.518 C 1003.5 365.868 1004.482 365.398 1005.847 365.109 C 1007.213 364.821 1009.112 364.678 1011.544 364.678 L 1012.249 364.678 L 1012.249 363.62 C 1012.249 362.34 1011.988 361.401 1011.464 360.804 C 1010.942 360.207 1010.094 359.908 1008.92 359.908 C 1007.469 359.908 1005.996 360.303 1004.502 361.092 C 1003.926 361.454 1003.52 361.636 1003.286 361.636 C 1003.029 361.636 1002.816 361.54 1002.646 361.348 C 1002.475 361.157 1002.39 360.911 1002.39 360.612 C 1002.39 360.314 1002.481 360.053 1002.662 359.829 C 1002.843 359.604 1003.137 359.375 1003.542 359.141 C 1004.289 358.713 1005.137 358.377 1006.086 358.132 C 1007.036 357.886 1007.981 357.762 1008.92 357.762 Z M 1007.863 371.911 C 1009.143 371.911 1010.194 371.479 1011.017 370.615 C 1011.838 369.751 1012.249 368.636 1012.249 367.27 L 1012.249 366.341 L 1011.672 366.341 C 1009.794 366.341 1008.365 366.421 1007.383 366.582 C 1006.402 366.741 1005.703 367.008 1005.286 367.383 C 1004.87 367.756 1004.662 368.305 1004.662 369.031 C 1004.662 369.863 1004.966 370.551 1005.575 371.095 C 1006.183 371.639 1006.945 371.911 1007.863 371.911 Z M 1024.761 373.96 C 1023.78 373.96 1022.847 373.842 1021.961 373.608 C 1021.076 373.373 1020.292 373.043 1019.609 372.617 C 1019.224 372.36 1018.952 372.12 1018.793 371.896 C 1018.632 371.672 1018.552 371.4 1018.552 371.079 C 1018.552 370.802 1018.632 370.573 1018.793 370.391 C 1018.952 370.21 1019.16 370.119 1019.417 370.119 C 1019.672 370.119 1020.045 370.279 1020.536 370.599 C 1021.176 370.983 1021.811 371.287 1022.441 371.511 C 1023.07 371.735 1023.855 371.847 1024.794 371.847 C 1025.946 371.847 1026.842 371.644 1027.482 371.239 C 1028.122 370.833 1028.442 370.246 1028.442 369.478 C 1028.442 369.009 1028.325 368.631 1028.09 368.343 C 1027.856 368.054 1027.45 367.798 1026.874 367.575 C 1026.299 367.351 1025.456 367.121 1024.345 366.885 C 1022.468 366.48 1021.124 365.936 1020.313 365.253 C 1019.501 364.57 1019.096 363.642 1019.096 362.47 C 1019.096 361.551 1019.352 360.74 1019.864 360.037 C 1020.377 359.332 1021.087 358.776 1021.994 358.371 C 1022.901 357.965 1023.93 357.762 1025.082 357.762 C 1025.914 357.762 1026.72 357.875 1027.5 358.099 C 1028.279 358.323 1028.966 358.638 1029.564 359.043 C 1030.289 359.556 1030.652 360.09 1030.652 360.645 C 1030.652 360.922 1030.567 361.157 1030.396 361.348 C 1030.224 361.54 1030.022 361.636 1029.787 361.636 C 1029.531 361.636 1029.146 361.454 1028.635 361.092 C 1028.037 360.708 1027.472 360.41 1026.938 360.196 C 1026.406 359.982 1025.744 359.875 1024.954 359.875 C 1023.951 359.875 1023.146 360.099 1022.538 360.548 C 1021.929 360.996 1021.624 361.594 1021.624 362.342 C 1021.624 362.811 1021.736 363.189 1021.961 363.476 C 1022.185 363.765 1022.559 364.022 1023.082 364.246 C 1023.604 364.47 1024.356 364.689 1025.339 364.901 C 1026.79 365.221 1027.915 365.573 1028.714 365.958 C 1029.515 366.342 1030.086 366.811 1030.429 367.365 C 1030.769 367.921 1030.94 368.626 1030.94 369.478 C 1030.94 370.823 1030.374 371.906 1029.243 372.727 C 1028.112 373.549 1026.618 373.96 1024.761 373.96 Z M 1045.822 358.627 C 1046.056 358.116 1046.43 357.86 1046.943 357.86 C 1047.263 357.86 1047.55 357.967 1047.806 358.181 C 1048.062 358.393 1048.191 358.659 1048.191 358.979 C 1048.191 359.172 1048.148 359.343 1048.062 359.492 L 1039.068 378.89 C 1038.962 379.125 1038.807 379.306 1038.603 379.435 C 1038.401 379.561 1038.193 379.625 1037.98 379.625 C 1037.659 379.625 1037.377 379.524 1037.132 379.322 C 1036.886 379.12 1036.763 378.858 1036.763 378.536 C 1036.763 378.367 1036.806 378.196 1036.891 378.025 L 1039.132 373.192 L 1032.794 359.492 C 1032.709 359.343 1032.666 359.183 1032.666 359.012 C 1032.666 358.692 1032.81 358.415 1033.097 358.181 C 1033.386 357.945 1033.701 357.827 1034.042 357.827 C 1034.256 357.827 1034.464 357.891 1034.666 358.019 C 1034.869 358.147 1035.024 358.329 1035.13 358.563 L 1040.477 370.566 L 1045.822 358.627 Z" style="fill: rgb(229, 229, 229); line-height: 231.452px; white-space: pre;"/>
  <g transform="matrix(0.221212, 0, 0, 0.221212, 59.706188, 3.002112)">
    <g transform="matrix(3.61644, 0, 0, 3.61644, -559.488525, -781.460693)">
      <path d="M 451.725 606.083 A 91.25 91.25 0 0 1 360.475 697.333 A 91.25 91.25 0 0 1 269.225 606.083 A 91.25 91.25 0 0 1 360.475 514.833 A 91.25 91.25 0 0 1 451.725 606.083 Z" style="stroke-width: 6px; fill: url(#gradient-2); stroke: url(#gradient-3);"/>
      <path d="M 351.951 628.885 C 352.811 628.885 353.554 629.245 354.181 629.965 C 354.808 630.685 355.121 631.525 355.121 632.485 C 355.121 634.598 353.488 636.665 350.221 638.685 C 343.308 642.812 336.011 644.875 328.331 644.875 C 317.678 644.875 309.278 641.658 303.131 635.225 C 296.991 628.792 293.921 619.958 293.921 608.725 C 293.921 601.525 295.288 595.165 298.021 589.645 C 300.754 584.125 304.594 579.855 309.541 576.835 C 314.488 573.808 320.174 572.295 326.601 572.295 C 335.628 572.295 342.758 575.198 347.991 581.005 C 353.224 586.818 355.841 594.812 355.841 604.985 C 355.841 606.712 355.454 607.985 354.681 608.805 C 353.914 609.618 352.668 610.025 350.941 610.025 L 302.991 610.025 C 303.278 618.858 305.581 625.578 309.901 630.185 C 314.221 634.792 320.318 637.095 328.191 637.095 C 332.318 637.095 335.774 636.545 338.561 635.445 C 341.341 634.338 344.314 632.872 347.481 631.045 C 349.594 629.605 351.084 628.885 351.951 628.885 Z M 326.601 579.495 C 319.881 579.495 314.508 581.608 310.481 585.835 C 306.448 590.055 304.048 595.958 303.281 603.545 L 347.771 603.545 C 347.578 595.865 345.658 589.938 342.011 585.765 C 338.364 581.585 333.228 579.495 326.601 579.495 Z" style="fill: rgb(255, 255, 255); white-space: pre; stroke-width: 5.99999px;"/>
      <path d="M 397.164 644.875 C 387.37 644.875 379.354 642.858 373.114 638.825 C 371.387 637.772 370.164 636.668 369.444 635.515 C 368.724 634.362 368.364 633.065 368.364 631.625 C 368.364 630.092 368.797 628.795 369.664 627.735 C 370.524 626.682 371.627 626.155 372.974 626.155 C 374.22 626.155 376.187 626.922 378.874 628.455 C 381.754 629.995 384.564 631.245 387.304 632.205 C 390.037 633.165 393.467 633.645 397.594 633.645 C 402.2 633.645 405.8 632.828 408.394 631.195 C 410.987 629.562 412.284 627.258 412.284 624.285 C 412.284 622.365 411.78 620.828 410.774 619.675 C 409.767 618.522 408.014 617.488 405.514 616.575 C 403.02 615.662 399.324 614.678 394.424 613.625 C 385.977 611.798 379.907 609.325 376.214 606.205 C 372.514 603.085 370.664 598.838 370.664 593.465 C 370.664 589.338 371.864 585.618 374.264 582.305 C 376.664 578.992 379.977 576.425 384.204 574.605 C 388.43 572.778 393.23 571.865 398.604 571.865 C 402.444 571.865 406.187 572.368 409.834 573.375 C 413.48 574.382 416.697 575.845 419.484 577.765 C 422.65 579.878 424.234 582.328 424.234 585.115 C 424.234 586.648 423.777 587.945 422.864 589.005 C 421.957 590.058 420.877 590.585 419.624 590.585 C 418.764 590.585 417.9 590.392 417.034 590.005 C 416.174 589.625 415.024 589.002 413.584 588.135 C 410.99 586.602 408.564 585.402 406.304 584.535 C 404.05 583.675 401.244 583.245 397.884 583.245 C 393.85 583.245 390.61 584.108 388.164 585.835 C 385.717 587.562 384.494 589.912 384.494 592.885 C 384.494 595.578 385.62 597.668 387.874 599.155 C 390.134 600.642 394.384 602.058 400.624 603.405 C 407.05 604.745 412.09 606.278 415.744 608.005 C 419.39 609.738 422.004 611.875 423.584 614.415 C 425.17 616.962 425.964 620.202 425.964 624.135 C 425.964 630.375 423.347 635.392 418.114 639.185 C 412.88 642.978 405.897 644.875 397.164 644.875 Z" style="fill: rgb(255, 255, 255); white-space: pre; stroke-width: 5.99999px;"/>
    </g>
  </g>
</svg>