<?xml version="1.0" encoding="utf-8"?>
<svg viewBox="0 0 190 190" xmlns="http://www.w3.org/2000/svg">
  <defs>
    <radialGradient id="gradient-1" gradientUnits="userSpaceOnUse" cx="152.286" cy="126.898" r="330" gradientTransform="matrix(0.176546, -0.30191, 0.303419, 0.177428, 283.804535, 575.233398)">
      <stop offset="0" style="stop-color: rgb(0, 170, 237);"/>
      <stop offset="1" style="stop-color: rgb(0, 145, 202);"/>
    </radialGradient>
    <linearGradient id="gradient-0" gradientUnits="userSpaceOnUse" x1="330" y1="0" x2="330" y2="660" gradientTransform="matrix(0.271191, -0.054002, 0.054129, 0.271824, 253.003403, 534.382141)">
      <stop offset="0" style="stop-color: rgb(152, 226, 255);"/>
      <stop offset="1" style="stop-color: rgb(78, 193, 239);"/>
    </linearGradient>
  </defs>
  <g transform="matrix(1, 0, 0, 1, -265.475006, -511.083008)">
    <circle style="fill: url(#gradient-1); stroke: url(#gradient-0); stroke-width: 6px;" cx="360.475" cy="606.083" r="91.25"/>
    <g transform="matrix(1.000001, -0.000001, 0.000001, 1.000001, -398.595245, 165.603058)">
      <path d="M 750.545 463.282 C 751.405 463.282 752.148 463.642 752.775 464.362 C 753.402 465.082 753.715 465.922 753.715 466.882 C 753.715 468.995 752.082 471.062 748.815 473.082 C 741.902 477.209 734.605 479.272 726.925 479.272 C 716.272 479.272 707.872 476.055 701.725 469.622 C 695.585 463.189 692.515 454.355 692.515 443.122 C 692.515 435.922 693.882 429.562 696.615 424.042 C 699.348 418.522 703.188 414.252 708.135 411.232 C 713.082 408.205 718.768 406.692 725.195 406.692 C 734.222 406.692 741.352 409.595 746.585 415.402 C 751.818 421.215 754.435 429.209 754.435 439.382 C 754.435 441.109 754.048 442.382 753.275 443.202 C 752.508 444.015 751.262 444.422 749.535 444.422 L 701.585 444.422 C 701.872 453.255 704.175 459.975 708.495 464.582 C 712.815 469.189 718.912 471.492 726.785 471.492 C 730.912 471.492 734.368 470.942 737.155 469.842 C 739.935 468.735 742.908 467.269 746.075 465.442 C 748.188 464.002 749.678 463.282 750.545 463.282 Z M 725.195 413.892 C 718.475 413.892 713.102 416.005 709.075 420.232 C 705.042 424.452 702.642 430.355 701.875 437.942 L 746.365 437.942 C 746.172 430.262 744.252 424.335 740.605 420.162 C 736.958 415.982 731.822 413.892 725.195 413.892 Z" style="fill: rgb(255, 255, 255); white-space: pre; stroke-width: 5.99999px;" transform="matrix(1, 0.000001, -0.000001, 1, 0.000443, -0.000723)"/>
      <path d="M 795.758 479.272 C 785.964 479.272 777.948 477.255 771.708 473.222 C 769.981 472.169 768.758 471.065 768.038 469.912 C 767.318 468.759 766.958 467.462 766.958 466.022 C 766.958 464.489 767.391 463.192 768.258 462.132 C 769.118 461.079 770.221 460.552 771.568 460.552 C 772.814 460.552 774.781 461.319 777.468 462.852 C 780.348 464.392 783.158 465.642 785.898 466.602 C 788.631 467.562 792.061 468.042 796.188 468.042 C 800.794 468.042 804.394 467.225 806.988 465.592 C 809.581 463.959 810.878 461.655 810.878 458.682 C 810.878 456.762 810.374 455.225 809.368 454.072 C 808.361 452.919 806.608 451.885 804.108 450.972 C 801.614 450.059 797.918 449.075 793.018 448.022 C 784.571 446.195 778.501 443.722 774.808 440.602 C 771.108 437.482 769.258 433.235 769.258 427.862 C 769.258 423.735 770.458 420.015 772.858 416.702 C 775.258 413.389 778.571 410.822 782.798 409.002 C 787.024 407.175 791.824 406.262 797.198 406.262 C 801.038 406.262 804.781 406.765 808.428 407.772 C 812.074 408.779 815.291 410.242 818.078 412.162 C 821.244 414.275 822.828 416.725 822.828 419.512 C 822.828 421.045 822.371 422.342 821.458 423.402 C 820.551 424.455 819.471 424.982 818.218 424.982 C 817.358 424.982 816.494 424.789 815.628 424.402 C 814.768 424.022 813.618 423.399 812.178 422.532 C 809.584 420.999 807.158 419.799 804.898 418.932 C 802.644 418.072 799.838 417.642 796.478 417.642 C 792.444 417.642 789.204 418.505 786.758 420.232 C 784.311 421.959 783.088 424.309 783.088 427.282 C 783.088 429.975 784.214 432.065 786.468 433.552 C 788.728 435.039 792.978 436.455 799.218 437.802 C 805.644 439.142 810.684 440.675 814.338 442.402 C 817.984 444.135 820.598 446.272 822.178 448.812 C 823.764 451.359 824.558 454.599 824.558 458.532 C 824.558 464.772 821.941 469.789 816.708 473.582 C 811.474 477.375 804.491 479.272 795.758 479.272 Z" style="fill: rgb(255, 255, 255); white-space: pre; stroke-width: 5.99999px;" transform="matrix(1, 0.000001, -0.000001, 1, 0.000443, -0.000796)"/>
    </g>
  </g>
</svg>